<svg width="23" height="21" viewBox="0 0 23 21" fill="none" xmlns="http://www.w3.org/2000/svg">
<path d="M20.6412 11.2293L11.2662 20.5143L1.89125 11.2293C1.27288 10.6275 0.785798 9.90428 0.46068 9.10505C0.135562 8.30583 -0.0205525 7.44795 0.00216734 6.58543C0.0248871 5.7229 0.225949 4.87443 0.592692 4.09343C0.959435 3.31243 1.48391 2.61583 2.1331 2.04748C2.78229 1.47914 3.54213 1.05137 4.36476 0.79111C5.18739 0.53085 6.055 0.443739 6.91296 0.535261C7.77091 0.626783 8.60062 0.894955 9.34984 1.32289C10.0991 1.75083 10.7516 2.32926 11.2662 3.02176C11.7832 2.33429 12.4364 1.76091 13.1851 1.33751C13.9338 0.91412 14.7619 0.649821 15.6174 0.561159C16.473 0.472497 17.3376 0.561382 18.1572 0.822249C18.9768 1.08312 19.7338 1.51035 20.3807 2.07721C21.0276 2.64408 21.5505 3.33836 21.9168 4.11662C22.283 4.89488 22.4847 5.74036 22.5091 6.60014C22.5336 7.45993 22.3803 8.3155 22.0589 9.11332C21.7375 9.91114 21.2549 10.634 20.6412 11.2368" fill="#ED6154"/>
</svg>
