<svg width="25" height="23" viewBox="0 0 25 23" fill="none" xmlns="http://www.w3.org/2000/svg">
<path d="M21.6412 12.2293L12.2662 21.5143L2.89125 12.2293C2.27288 11.6275 1.7858 10.9043 1.46068 10.1051C1.13556 9.30583 0.979448 8.44795 1.00217 7.58543C1.02489 6.7229 1.22595 5.87443 1.59269 5.09343C1.95944 4.31243 2.48391 3.61583 3.1331 3.04748C3.78229 2.47914 4.54213 2.05137 5.36476 1.79111C6.18739 1.53085 7.055 1.44374 7.91296 1.53526C8.77091 1.62678 9.60062 1.89496 10.3498 2.32289C11.0991 2.75083 11.7516 3.32926 12.2662 4.02176C12.7832 3.33429 13.4364 2.76091 14.1851 2.33751C14.9338 1.91412 15.7619 1.64982 16.6174 1.56116C17.473 1.4725 18.3376 1.56138 19.1572 1.82225C19.9768 2.08312 20.7338 2.51035 21.3807 3.07721C22.0276 3.64408 22.5505 4.33836 22.9168 5.11662C23.283 5.89488 23.4847 6.74036 23.5091 7.60014C23.5336 8.45993 23.3803 9.3155 23.0589 10.1133C22.7375 10.9111 22.2549 11.634 21.6412 12.2368" stroke="#0D0D0D" stroke-width="1.4" stroke-linecap="round" stroke-linejoin="round"/>
</svg>
