<svg width="80" height="80" viewBox="0 0 80 80" fill="none" xmlns="http://www.w3.org/2000/svg">
<rect width="80" height="80" rx="40" fill="#FBF4F3"/>
<path fill-rule="evenodd" clip-rule="evenodd" d="M59.8549 21.0878L60.8915 21.5992V43.7361L58.1424 40.9871L47.8857 51.2436L47.8202 51.2483L45.3367 48.7649L41.4933 52.6082C41.1861 52.7288 40.8902 52.8558 40.6059 52.9884C37.7919 54.3028 34.1719 55.0699 30.2665 55.0699C28.0864 55.0699 25.0961 55.0586 20.0027 53.0212L19.0859 52.6545V20.3465L21.0859 21.1464C25.6866 22.9867 28.2699 22.9867 30.2307 22.9866H30.2665C33.8164 22.9866 37.0036 22.2852 39.3715 21.1791C42.1855 19.8648 45.8055 19.0977 49.7109 19.0977C52.7884 19.0977 55.3553 19.6103 57.1601 20.126C58.0635 20.3841 58.7791 20.6438 59.2761 20.8426C59.5246 20.9421 59.7188 21.0264 59.8549 21.0878ZM39.9887 30.7644C36.4986 30.7644 33.6693 33.5937 33.6693 37.0838C33.6693 40.5739 36.4986 43.4032 39.9887 43.4032C43.4788 43.4032 46.3082 40.5739 46.3082 37.0838C46.3082 33.5937 43.4788 30.7644 39.9887 30.7644ZM29.2943 37.0838V40.9902H25.4054V37.0838H29.2943ZM54.5721 37.0861V33.1797H50.6832V37.0861H54.5721Z" fill="#ED6154"/>
<path fill-rule="evenodd" clip-rule="evenodd" d="M47.8639 55.4043L58.1557 45.1125L60.9057 47.8624L47.8639 60.904L42.6001 55.6402L45.3501 52.8903L47.8639 55.4043Z" fill="#ED6154"/>
</svg>
