<svg width="81" height="80" viewBox="0 0 81 80" fill="none" xmlns="http://www.w3.org/2000/svg">
<rect x="0.5" width="80" height="80" rx="40" fill="#FBF4F3"/>
<path d="M38.4872 21.1112L28.2275 42.9312C28.056 43.296 27.9794 43.6982 28.0048 44.1004C28.0302 44.5027 28.1568 44.892 28.3728 45.2323C28.5889 45.5726 28.8874 45.8528 29.2406 46.0469C29.5939 46.241 29.9905 46.3427 30.3936 46.3426H37.5847L33.0017 57.8044C32.3278 59.4894 34.5451 60.8092 35.7051 59.4132L52.4604 39.2483C53.3761 38.1463 52.5929 36.4754 51.1596 36.4754H44.8288L53.3488 21.7736C53.453 21.5941 53.5081 21.3903 53.5084 21.1827C53.5088 20.9752 53.4544 20.7712 53.3508 20.5913C53.2472 20.4115 53.098 20.2621 52.9183 20.1583C52.7385 20.0545 52.5346 19.9999 52.3271 20H40.2384C39.8712 20.0003 39.5117 20.105 39.2017 20.3017C38.8916 20.4984 38.6439 20.7791 38.4872 21.1112Z" fill="#ED6154"/>
</svg>
