<svg width="50" height="51" viewBox="0 0 50 51" fill="none" xmlns="http://www.w3.org/2000/svg">
<rect y="0.749023" width="50" height="50" rx="25" fill="#FBF4F3"/>
<path fill-rule="evenodd" clip-rule="evenodd" d="M37.4093 13.9289L38.0572 14.2485V28.0841L36.339 26.3659L29.9286 32.7763L29.8876 32.7792L28.3354 31.227L25.9333 33.6292C25.7413 33.7045 25.5563 33.7839 25.3787 33.8667C23.6199 34.6883 21.3574 35.1677 18.9166 35.1677C17.554 35.1677 15.6851 35.1606 12.5017 33.8873L11.9287 33.6581V13.4655L13.1787 13.9655C16.0541 15.1157 17.6687 15.1157 18.8942 15.1156H18.9166C21.1352 15.1156 23.1273 14.6772 24.6072 13.986C26.366 13.1645 28.6285 12.6851 31.0693 12.6851C32.9928 12.6851 34.597 13.0055 35.7251 13.3278C36.2897 13.4891 36.7369 13.6514 37.0475 13.7756C37.2028 13.8378 37.3242 13.8905 37.4093 13.9289ZM24.9929 19.9767C22.8116 19.9767 21.0433 21.745 21.0433 23.9264C21.0433 26.1077 22.8116 27.876 24.9929 27.876C27.1742 27.876 28.9426 26.1077 28.9426 23.9264C28.9426 21.745 27.1742 19.9767 24.9929 19.9767ZM18.3089 23.9264V26.3679H15.8784V23.9264H18.3089ZM34.1075 23.9278V21.4863H31.677V23.9278H34.1075Z" fill="#ED6154"/>
<path fill-rule="evenodd" clip-rule="evenodd" d="M29.9149 35.3767L36.3472 28.9443L38.066 30.663L29.9149 38.814L26.625 35.5241L28.3438 33.8054L29.9149 35.3767Z" fill="#ED6154"/>
</svg>
