<svg width="1052" height="70" viewBox="0 0 1052 70" fill="none" xmlns="http://www.w3.org/2000/svg">
<line x1="46.5" y1="34.249" x2="350.5" y2="34.249" stroke="#ED6154" stroke-dasharray="4 4"/>
<line x1="373.5" y1="34.249" x2="677.5" y2="34.249" stroke="#ED6154" stroke-dasharray="4 4"/>
<line x1="700.5" y1="34.249" x2="1004.5" y2="34.249" stroke="#ED6154" stroke-dasharray="4 4"/>
<rect x="1.5" y="1.74902" width="67" height="67" rx="33.5" fill="white"/>
<rect x="1.5" y="1.74902" width="67" height="67" rx="33.5" stroke="#ED6154" stroke-width="2"/>
<path d="M35.142 44.749V27.719L35.324 26.549H37.3V44.749H35.142ZM31.06 31.229V29.227C31.424 29.2444 31.8573 29.123 32.36 28.863C32.8627 28.603 33.3827 28.265 33.92 27.849C34.4573 27.433 34.9253 26.9997 35.324 26.549L36.676 28.031C36.104 28.6377 35.506 29.1837 34.882 29.669C34.258 30.1544 33.6253 30.5444 32.984 30.839C32.3427 31.1164 31.7013 31.2464 31.06 31.229Z" fill="#ED6154"/>
<rect x="329.5" y="1.74902" width="65" height="67" rx="32.5" fill="white"/>
<rect x="329.5" y="1.74902" width="65" height="67" rx="32.5" stroke="#ED6154" stroke-width="2"/>
<path d="M355.982 44.749V42.929C355.982 42.357 356.095 41.7937 356.32 41.239C356.563 40.667 356.901 40.1037 357.334 39.549C357.785 38.9944 358.331 38.4744 358.972 37.989L362.742 35.155C363.193 34.843 363.583 34.4877 363.912 34.089C364.259 33.673 364.527 33.2484 364.718 32.815C364.909 32.3644 365.004 31.931 365.004 31.515C365.004 30.9084 364.857 30.3624 364.562 29.877C364.267 29.3744 363.851 28.9757 363.314 28.681C362.777 28.3864 362.144 28.239 361.416 28.239C360.705 28.239 360.081 28.3777 359.544 28.655C359.007 28.915 358.565 29.2704 358.218 29.721C357.871 30.1544 357.62 30.6224 357.464 31.125L355.228 30.683C355.436 29.903 355.809 29.175 356.346 28.499C356.901 27.823 357.603 27.277 358.452 26.861C359.301 26.445 360.246 26.237 361.286 26.237C362.499 26.237 363.548 26.471 364.432 26.939C365.316 27.3897 366.001 28.0137 366.486 28.811C366.989 29.591 367.24 30.4837 367.24 31.489C367.24 32.4424 366.98 33.3437 366.46 34.193C365.94 35.0424 365.186 35.8657 364.198 36.663L360.636 39.367C359.943 39.887 359.405 40.433 359.024 41.005C358.66 41.577 358.452 42.175 358.4 42.799H367.5V44.749H355.982Z" fill="#ED6154"/>
<rect x="655.5" y="1.74902" width="67" height="67" rx="33.5" fill="white"/>
<rect x="655.5" y="1.74902" width="67" height="67" rx="33.5" stroke="#ED6154" stroke-width="2"/>
<path d="M688.494 45.061C687.61 45.061 686.804 44.931 686.076 44.671C685.365 44.3937 684.75 44.0384 684.23 43.605C683.727 43.1717 683.329 42.7124 683.034 42.227L684.854 41.213C685.045 41.4557 685.279 41.733 685.556 42.045C685.851 42.3397 686.223 42.591 686.674 42.799C687.125 43.007 687.679 43.111 688.338 43.111C689.517 43.111 690.461 42.773 691.172 42.097C691.883 41.421 692.238 40.5717 692.238 39.549C692.238 38.769 692.021 38.1104 691.588 37.573C691.172 37.0357 690.565 36.6284 689.768 36.351C688.971 36.0737 688.017 35.935 686.908 35.935H686.414V34.219H686.856C687.948 34.219 688.953 34.3404 689.872 34.583C690.791 34.8257 691.588 35.181 692.264 35.649C692.957 36.117 693.486 36.689 693.85 37.365C694.231 38.041 694.422 38.821 694.422 39.705C694.422 40.7797 694.153 41.7244 693.616 42.539C693.096 43.3364 692.385 43.9604 691.484 44.411C690.583 44.8444 689.586 45.061 688.494 45.061ZM686.414 35.753V34.063H686.908C688.399 34.063 689.577 33.8117 690.444 33.309C691.328 32.789 691.77 32.0524 691.77 31.099C691.77 30.579 691.631 30.1024 691.354 29.669C691.077 29.2184 690.669 28.863 690.132 28.603C689.612 28.3257 689.005 28.187 688.312 28.187C687.844 28.187 687.402 28.2564 686.986 28.395C686.587 28.5164 686.215 28.707 685.868 28.967C685.539 29.2097 685.235 29.5217 684.958 29.903L683.242 28.915C683.571 28.3777 683.987 27.9097 684.49 27.511C685.01 27.1124 685.599 26.8004 686.258 26.575C686.917 26.3497 687.636 26.237 688.416 26.237C689.473 26.237 690.418 26.445 691.25 26.861C692.099 27.277 692.767 27.849 693.252 28.577C693.737 29.2877 693.98 30.0937 693.98 30.995C693.98 31.7577 693.798 32.4337 693.434 33.023C693.07 33.6124 692.559 34.115 691.9 34.531C691.259 34.947 690.505 35.259 689.638 35.467C688.789 35.6577 687.861 35.753 686.856 35.753H686.414Z" fill="#ED6154"/>
<rect x="981.5" y="1.74902" width="69" height="67" rx="33.5" fill="white"/>
<rect x="981.5" y="1.74902" width="69" height="67" rx="33.5" stroke="#ED6154" stroke-width="2"/>
<path d="M1017.02 44.749V40.329H1008.62V38.639L1016.91 26.549H1019.15V38.379H1022.87V40.329H1019.15V44.749H1017.02ZM1011.14 38.379H1017.02V29.747L1011.14 38.379Z" fill="#ED6154"/>
</svg>
