<svg width="273" height="434" viewBox="0 0 273 434" fill="none" xmlns="http://www.w3.org/2000/svg">
<rect x="50.1484" y="433.749" width="433.749" height="222.852" rx="111.426" transform="rotate(-90 50.1484 433.749)" fill="#1E1F21"/>
<path d="M136.278 256.63C135.101 256.63 134.124 256.367 133.348 255.841C132.571 255.315 132.096 254.519 131.92 253.455L133.724 253.023C133.824 253.536 133.993 253.943 134.231 254.244C134.469 254.544 134.763 254.757 135.114 254.883C135.477 255.008 135.865 255.07 136.278 255.07C136.892 255.07 137.361 254.951 137.687 254.714C138.025 254.476 138.194 254.169 138.194 253.793C138.194 253.417 138.038 253.142 137.725 252.967C137.412 252.791 136.948 252.647 136.335 252.535L135.696 252.422C135.07 252.309 134.5 252.146 133.987 251.933C133.473 251.721 133.066 251.426 132.766 251.051C132.465 250.675 132.315 250.193 132.315 249.604C132.315 248.728 132.64 248.051 133.292 247.575C133.943 247.087 134.807 246.843 135.884 246.843C136.923 246.843 137.775 247.081 138.438 247.557C139.115 248.02 139.553 248.652 139.753 249.454L137.95 249.961C137.837 249.398 137.599 249.003 137.236 248.778C136.873 248.54 136.422 248.421 135.884 248.421C135.358 248.421 134.945 248.521 134.644 248.721C134.343 248.909 134.193 249.178 134.193 249.529C134.193 249.905 134.337 250.18 134.625 250.356C134.926 250.531 135.326 250.662 135.827 250.75L136.485 250.863C137.149 250.975 137.756 251.132 138.307 251.332C138.858 251.533 139.29 251.821 139.603 252.196C139.929 252.572 140.091 253.073 140.091 253.699C140.091 254.626 139.747 255.346 139.058 255.859C138.37 256.373 137.443 256.63 136.278 256.63ZM146.598 256.63C145.659 256.63 144.839 256.435 144.137 256.047C143.436 255.647 142.885 255.089 142.484 254.375C142.096 253.649 141.902 252.81 141.902 251.858V251.633C141.902 250.669 142.096 249.83 142.484 249.116C142.873 248.389 143.411 247.832 144.1 247.444C144.801 247.043 145.609 246.843 146.523 246.843C147.412 246.843 148.189 247.043 148.852 247.444C149.529 247.832 150.055 248.377 150.43 249.078C150.806 249.78 150.994 250.6 150.994 251.539V252.272H143.874C143.9 253.086 144.169 253.737 144.682 254.225C145.208 254.701 145.859 254.939 146.636 254.939C147.362 254.939 147.907 254.776 148.27 254.451C148.646 254.125 148.934 253.749 149.134 253.324L150.731 254.15C150.555 254.501 150.299 254.87 149.961 255.258C149.635 255.647 149.203 255.972 148.665 256.235C148.126 256.498 147.437 256.63 146.598 256.63ZM143.893 250.788H149.021C148.971 250.086 148.721 249.542 148.27 249.153C147.819 248.753 147.231 248.552 146.504 248.552C145.778 248.552 145.183 248.753 144.72 249.153C144.269 249.542 143.993 250.086 143.893 250.788ZM157.624 256.63C156.735 256.63 155.928 256.442 155.201 256.066C154.487 255.69 153.918 255.146 153.492 254.432C153.079 253.718 152.872 252.86 152.872 251.858V251.614C152.872 250.612 153.079 249.761 153.492 249.059C153.918 248.346 154.487 247.801 155.201 247.425C155.928 247.037 156.735 246.843 157.624 246.843C158.514 246.843 159.271 247.006 159.897 247.331C160.523 247.657 161.024 248.089 161.4 248.627C161.788 249.166 162.039 249.761 162.151 250.412L160.273 250.806C160.21 250.393 160.079 250.017 159.879 249.679C159.678 249.341 159.396 249.072 159.033 248.872C158.67 248.671 158.213 248.571 157.662 248.571C157.123 248.571 156.635 248.696 156.197 248.947C155.771 249.185 155.433 249.535 155.182 249.999C154.932 250.449 154.807 251 154.807 251.652V251.821C154.807 252.472 154.932 253.029 155.182 253.493C155.433 253.956 155.771 254.307 156.197 254.544C156.635 254.782 157.123 254.901 157.662 254.901C158.476 254.901 159.096 254.695 159.522 254.282C159.947 253.856 160.217 253.317 160.329 252.666L162.208 253.098C162.058 253.737 161.788 254.325 161.4 254.864C161.024 255.402 160.523 255.834 159.897 256.16C159.271 256.473 158.514 256.63 157.624 256.63ZM167.99 256.536C167.288 256.536 166.662 256.379 166.111 256.066C165.56 255.753 165.128 255.308 164.815 254.732C164.502 254.156 164.345 253.468 164.345 252.666V247.106H166.28V252.535C166.28 253.336 166.481 253.931 166.881 254.319C167.282 254.695 167.839 254.883 168.553 254.883C169.342 254.883 169.974 254.62 170.45 254.094C170.939 253.555 171.183 252.785 171.183 251.783V247.106H173.118V256.367H171.22V254.977H170.92C170.745 255.352 170.432 255.709 169.981 256.047C169.53 256.373 168.866 256.536 167.99 256.536ZM175.978 256.367V247.106H177.875V248.195H178.176C178.326 247.807 178.564 247.525 178.889 247.35C179.227 247.162 179.641 247.068 180.129 247.068H181.237V248.815H180.054C179.428 248.815 178.914 248.991 178.514 249.341C178.113 249.679 177.913 250.205 177.913 250.919V256.367H175.978ZM187.157 256.63C186.218 256.63 185.398 256.435 184.696 256.047C183.995 255.647 183.444 255.089 183.043 254.375C182.655 253.649 182.461 252.81 182.461 251.858V251.633C182.461 250.669 182.655 249.83 183.043 249.116C183.432 248.389 183.97 247.832 184.659 247.444C185.36 247.043 186.168 246.843 187.082 246.843C187.971 246.843 188.748 247.043 189.411 247.444C190.088 247.832 190.614 248.377 190.989 249.078C191.365 249.78 191.553 250.6 191.553 251.539V252.272H184.433C184.458 253.086 184.728 253.737 185.241 254.225C185.767 254.701 186.418 254.939 187.195 254.939C187.921 254.939 188.466 254.776 188.829 254.451C189.205 254.125 189.493 253.749 189.693 253.324L191.29 254.15C191.114 254.501 190.858 254.87 190.52 255.258C190.194 255.647 189.762 255.972 189.223 256.235C188.685 256.498 187.996 256.63 187.157 256.63ZM184.452 250.788H189.58C189.53 250.086 189.28 249.542 188.829 249.153C188.378 248.753 187.79 248.552 187.063 248.552C186.337 248.552 185.742 248.753 185.279 249.153C184.828 249.542 184.552 250.086 184.452 250.788ZM127.03 282.63C126.366 282.63 125.771 282.517 125.245 282.291C124.732 282.066 124.318 281.734 124.005 281.296C123.705 280.858 123.554 280.325 123.554 279.699C123.554 279.061 123.705 278.535 124.005 278.121C124.318 277.696 124.738 277.376 125.264 277.163C125.802 276.95 126.41 276.844 127.086 276.844H129.904V276.243C129.904 275.704 129.741 275.272 129.415 274.947C129.09 274.621 128.589 274.458 127.912 274.458C127.249 274.458 126.742 274.615 126.391 274.928C126.04 275.241 125.809 275.648 125.696 276.149L123.893 275.567C124.043 275.066 124.281 274.615 124.606 274.214C124.944 273.801 125.389 273.469 125.94 273.219C126.491 272.968 127.155 272.843 127.931 272.843C129.133 272.843 130.079 273.15 130.768 273.763C131.456 274.377 131.801 275.247 131.801 276.374V280.188C131.801 280.563 131.976 280.751 132.327 280.751H133.116V282.367H131.669C131.231 282.367 130.874 282.254 130.599 282.028C130.323 281.803 130.185 281.496 130.185 281.108V281.052H129.904C129.803 281.24 129.653 281.459 129.453 281.709C129.252 281.96 128.958 282.179 128.57 282.367C128.182 282.542 127.668 282.63 127.03 282.63ZM127.311 281.033C128.088 281.033 128.714 280.814 129.19 280.375C129.666 279.925 129.904 279.311 129.904 278.535V278.347H127.199C126.685 278.347 126.272 278.459 125.959 278.685C125.646 278.898 125.489 279.217 125.489 279.643C125.489 280.069 125.652 280.407 125.978 280.657C126.303 280.908 126.748 281.033 127.311 281.033ZM134.997 282.367V273.106H136.894V274.496H137.195C137.37 274.12 137.683 273.77 138.134 273.444C138.585 273.118 139.255 272.956 140.144 272.956C140.845 272.956 141.465 273.112 142.004 273.425C142.555 273.738 142.987 274.183 143.3 274.759C143.613 275.322 143.769 276.005 143.769 276.806V282.367H141.834V276.957C141.834 276.155 141.634 275.567 141.233 275.191C140.833 274.803 140.282 274.609 139.58 274.609C138.779 274.609 138.134 274.872 137.646 275.398C137.17 275.924 136.932 276.687 136.932 277.689V282.367H134.997ZM150.386 282.63C149.622 282.63 148.914 282.442 148.263 282.066C147.612 281.69 147.086 281.152 146.685 280.451C146.297 279.737 146.103 278.879 146.103 277.877V277.595C146.103 276.606 146.297 275.754 146.685 275.041C147.073 274.327 147.593 273.782 148.244 273.406C148.896 273.031 149.609 272.843 150.386 272.843C150.987 272.843 151.488 272.918 151.889 273.068C152.302 273.219 152.64 273.413 152.903 273.651C153.166 273.876 153.366 274.114 153.504 274.364H153.805V269.217H155.739V282.367H153.842V281.052H153.542C153.304 281.452 152.94 281.816 152.452 282.141C151.976 282.467 151.287 282.63 150.386 282.63ZM150.931 280.939C151.77 280.939 152.458 280.67 152.997 280.131C153.548 279.593 153.823 278.823 153.823 277.821V277.652C153.823 276.662 153.554 275.898 153.016 275.36C152.477 274.822 151.782 274.552 150.931 274.552C150.104 274.552 149.415 274.822 148.864 275.36C148.326 275.898 148.057 276.662 148.057 277.652V277.821C148.057 278.823 148.326 279.593 148.864 280.131C149.415 280.67 150.104 280.939 150.931 280.939ZM167.17 282.63C165.993 282.63 165.016 282.367 164.239 281.841C163.463 281.315 162.987 280.519 162.812 279.455L164.615 279.023C164.715 279.536 164.884 279.943 165.122 280.244C165.36 280.544 165.655 280.757 166.005 280.883C166.368 281.008 166.757 281.07 167.17 281.07C167.783 281.07 168.253 280.951 168.579 280.714C168.917 280.476 169.086 280.169 169.086 279.793C169.086 279.417 168.929 279.142 168.616 278.967C168.303 278.791 167.84 278.647 167.226 278.535L166.587 278.422C165.961 278.309 165.392 278.146 164.878 277.933C164.365 277.721 163.958 277.426 163.657 277.051C163.357 276.675 163.206 276.193 163.206 275.604C163.206 274.728 163.532 274.051 164.183 273.575C164.834 273.087 165.698 272.843 166.775 272.843C167.815 272.843 168.666 273.081 169.33 273.557C170.006 274.02 170.445 274.652 170.645 275.454L168.842 275.961C168.729 275.398 168.491 275.003 168.128 274.778C167.765 274.54 167.314 274.421 166.775 274.421C166.249 274.421 165.836 274.521 165.536 274.721C165.235 274.909 165.085 275.178 165.085 275.529C165.085 275.905 165.229 276.18 165.517 276.356C165.817 276.531 166.218 276.662 166.719 276.75L167.376 276.863C168.04 276.975 168.648 277.132 169.199 277.332C169.75 277.533 170.182 277.821 170.495 278.196C170.82 278.572 170.983 279.073 170.983 279.699C170.983 280.626 170.639 281.346 169.95 281.859C169.261 282.373 168.334 282.63 167.17 282.63ZM176.045 282.63C175.381 282.63 174.787 282.517 174.261 282.291C173.747 282.066 173.334 281.734 173.021 281.296C172.72 280.858 172.57 280.325 172.57 279.699C172.57 279.061 172.72 278.535 173.021 278.121C173.334 277.696 173.753 277.376 174.279 277.163C174.818 276.95 175.425 276.844 176.102 276.844H178.919V276.243C178.919 275.704 178.756 275.272 178.431 274.947C178.105 274.621 177.604 274.458 176.928 274.458C176.264 274.458 175.757 274.615 175.406 274.928C175.056 275.241 174.824 275.648 174.711 276.149L172.908 275.567C173.058 275.066 173.296 274.615 173.622 274.214C173.96 273.801 174.405 273.469 174.956 273.219C175.507 272.968 176.17 272.843 176.947 272.843C178.149 272.843 179.094 273.15 179.783 273.763C180.472 274.377 180.816 275.247 180.816 276.374V280.188C180.816 280.563 180.992 280.751 181.342 280.751H182.131V282.367H180.685C180.247 282.367 179.89 282.254 179.614 282.028C179.339 281.803 179.201 281.496 179.201 281.108V281.052H178.919C178.819 281.24 178.669 281.459 178.468 281.709C178.268 281.96 177.974 282.179 177.585 282.367C177.197 282.542 176.684 282.63 176.045 282.63ZM176.327 281.033C177.103 281.033 177.729 280.814 178.205 280.375C178.681 279.925 178.919 279.311 178.919 278.535V278.347H176.214C175.701 278.347 175.288 278.459 174.974 278.685C174.661 278.898 174.505 279.217 174.505 279.643C174.505 280.069 174.668 280.407 174.993 280.657C175.319 280.908 175.763 281.033 176.327 281.033ZM185.042 282.367V274.74H182.45V273.106H185.042V271.077C185.042 270.514 185.211 270.063 185.549 269.725C185.888 269.387 186.338 269.217 186.902 269.217H189.288V270.852H187.522C187.159 270.852 186.977 271.04 186.977 271.415V273.106H189.644V274.74H186.977V282.367H185.042ZM195.485 282.63C194.546 282.63 193.726 282.435 193.025 282.047C192.323 281.647 191.772 281.089 191.372 280.375C190.983 279.649 190.789 278.81 190.789 277.858V277.633C190.789 276.669 190.983 275.83 191.372 275.116C191.76 274.389 192.298 273.832 192.987 273.444C193.688 273.043 194.496 272.843 195.41 272.843C196.299 272.843 197.076 273.043 197.74 273.444C198.416 273.832 198.942 274.377 199.317 275.078C199.693 275.78 199.881 276.6 199.881 277.539V278.272H192.762C192.787 279.086 193.056 279.737 193.569 280.225C194.095 280.701 194.747 280.939 195.523 280.939C196.249 280.939 196.794 280.776 197.157 280.451C197.533 280.125 197.821 279.749 198.021 279.324L199.618 280.15C199.443 280.501 199.186 280.87 198.848 281.258C198.522 281.647 198.09 281.972 197.552 282.235C197.013 282.498 196.324 282.63 195.485 282.63ZM192.78 276.788H197.909C197.859 276.086 197.608 275.542 197.157 275.153C196.706 274.753 196.118 274.552 195.391 274.552C194.665 274.552 194.07 274.753 193.607 275.153C193.156 275.542 192.881 276.086 192.78 276.788Z" fill="#1E1F21"/>
<rect width="119.537" height="168.206" transform="translate(102.232 50.3765)" fill="#1E1F21"/>
<path d="M195.659 109.564V83.997C195.647 75.0839 192.097 66.5394 185.788 60.2369C179.478 53.9344 170.924 50.3884 162.001 50.3765C143.464 50.3765 128.38 65.4597 128.38 83.997V109.538C112.614 120.316 102.232 138.432 102.232 158.88C102.232 191.769 129.078 218.582 162.001 218.582C194.924 218.582 221.77 191.769 221.77 158.88C221.77 138.448 211.404 120.345 195.659 109.564ZM166.104 167.477V186.428C166.106 186.64 166.066 186.851 165.986 187.047C165.906 187.244 165.787 187.422 165.637 187.572C165.486 187.722 165.307 187.84 165.11 187.92C164.914 188 164.703 188.04 164.49 188.037H159.512C159.299 188.04 159.088 188 158.892 187.92C158.695 187.84 158.516 187.722 158.365 187.572C158.215 187.422 158.096 187.244 158.016 187.047C157.936 186.851 157.896 186.64 157.898 186.428V167.04C158.01 163.344 153.798 164.039 153.798 158.112C153.798 155.938 154.662 153.854 156.201 152.318C157.739 150.781 159.826 149.918 162.001 149.918C164.177 149.918 166.263 150.781 167.801 152.318C169.34 153.854 170.204 155.938 170.204 158.112C170.204 163.967 166.104 163.124 166.104 167.477ZM182.767 102.874C169.382 97.9058 154.657 97.9058 141.272 102.874V84.0102C141.272 78.5138 143.458 73.2425 147.349 69.356C151.24 65.4695 156.517 63.286 162.02 63.286C167.522 63.286 172.799 65.4695 176.69 69.356C180.581 73.2425 182.767 78.5138 182.767 84.0102V102.874Z" fill="white"/>
<g opacity="0.34">
<rect x="93.6956" y="341.535" width="136.614" height="6.8307" rx="3.41535" fill="#1E1F21"/>
<rect x="86.8647" y="358.611" width="150.275" height="6.8307" rx="3.41535" fill="#1E1F21"/>
<rect x="108.21" y="375.688" width="107.583" height="6.8307" rx="3.41535" fill="#1E1F21"/>
</g>
<rect x="0.296875" y="433.749" width="433.749" height="222.852" rx="111.426" transform="rotate(-90 0.296875 433.749)" fill="#ED6154"/>
<path d="M86.4267 256.63C85.2495 256.63 84.2727 256.367 83.4963 255.841C82.7199 255.315 82.244 254.519 82.0687 253.455L83.872 253.023C83.9722 253.536 84.1412 253.943 84.3792 254.244C84.6171 254.544 84.9114 254.757 85.262 254.883C85.6252 255.008 86.0134 255.07 86.4267 255.07C87.0403 255.07 87.5099 254.951 87.8355 254.714C88.1736 254.476 88.3427 254.169 88.3427 253.793C88.3427 253.417 88.1862 253.142 87.8731 252.967C87.56 252.791 87.0967 252.647 86.483 252.535L85.8444 252.422C85.2182 252.309 84.6484 252.146 84.135 251.933C83.6215 251.721 83.2145 251.426 82.914 251.051C82.6134 250.675 82.4632 250.193 82.4632 249.604C82.4632 248.728 82.7888 248.051 83.44 247.575C84.0911 247.087 84.9552 246.843 86.0322 246.843C87.0716 246.843 87.9232 247.081 88.5869 247.557C89.2631 248.02 89.7014 248.652 89.9018 249.454L88.0985 249.961C87.9858 249.398 87.7478 249.003 87.3847 248.778C87.0215 248.54 86.5707 248.421 86.0322 248.421C85.5062 248.421 85.093 248.521 84.7924 248.721C84.4919 248.909 84.3416 249.178 84.3416 249.529C84.3416 249.905 84.4856 250.18 84.7736 250.356C85.0742 250.531 85.4749 250.662 85.9759 250.75L86.6333 250.863C87.297 250.975 87.9044 251.132 88.4554 251.332C89.0064 251.533 89.4384 251.821 89.7515 252.196C90.0771 252.572 90.2399 253.073 90.2399 253.699C90.2399 254.626 89.8955 255.346 89.2068 255.859C88.518 256.373 87.5913 256.63 86.4267 256.63ZM96.7467 256.63C95.8074 256.63 94.9872 256.435 94.2859 256.047C93.5846 255.647 93.0336 255.089 92.6329 254.375C92.2447 253.649 92.0506 252.81 92.0506 251.858V251.633C92.0506 250.669 92.2447 249.83 92.6329 249.116C93.0211 248.389 93.5596 247.832 94.2483 247.444C94.9496 247.043 95.7574 246.843 96.6715 246.843C97.5607 246.843 98.3371 247.043 99.0008 247.444C99.677 247.832 100.203 248.377 100.579 249.078C100.954 249.78 101.142 250.6 101.142 251.539V252.272H94.0229C94.048 253.086 94.3172 253.737 94.8307 254.225C95.3566 254.701 96.0078 254.939 96.7842 254.939C97.5106 254.939 98.0553 254.776 98.4185 254.451C98.7942 254.125 99.0822 253.749 99.2826 253.324L100.879 254.15C100.704 254.501 100.447 254.87 100.109 255.258C99.7835 255.647 99.3514 255.972 98.813 256.235C98.2745 256.498 97.5857 256.63 96.7467 256.63ZM94.0417 250.788H99.1699C99.1198 250.086 98.8693 249.542 98.4185 249.153C97.9677 248.753 97.3791 248.552 96.6527 248.552C95.9264 248.552 95.3316 248.753 94.8682 249.153C94.4174 249.542 94.1419 250.086 94.0417 250.788ZM107.773 256.63C106.884 256.63 106.076 256.442 105.35 256.066C104.636 255.69 104.066 255.146 103.64 254.432C103.227 253.718 103.02 252.86 103.02 251.858V251.614C103.02 250.612 103.227 249.761 103.64 249.059C104.066 248.346 104.636 247.801 105.35 247.425C106.076 247.037 106.884 246.843 107.773 246.843C108.662 246.843 109.42 247.006 110.046 247.331C110.672 247.657 111.173 248.089 111.548 248.627C111.937 249.166 112.187 249.761 112.3 250.412L110.421 250.806C110.359 250.393 110.227 250.017 110.027 249.679C109.827 249.341 109.545 249.072 109.182 248.872C108.818 248.671 108.361 248.571 107.81 248.571C107.272 248.571 106.784 248.696 106.345 248.947C105.919 249.185 105.581 249.535 105.331 249.999C105.08 250.449 104.955 251 104.955 251.652V251.821C104.955 252.472 105.08 253.029 105.331 253.493C105.581 253.956 105.919 254.307 106.345 254.544C106.784 254.782 107.272 254.901 107.81 254.901C108.624 254.901 109.244 254.695 109.67 254.282C110.096 253.856 110.365 253.317 110.478 252.666L112.356 253.098C112.206 253.737 111.937 254.325 111.548 254.864C111.173 255.402 110.672 255.834 110.046 256.16C109.42 256.473 108.662 256.63 107.773 256.63ZM118.138 256.536C117.437 256.536 116.811 256.379 116.26 256.066C115.709 255.753 115.277 255.308 114.963 254.732C114.65 254.156 114.494 253.468 114.494 252.666V247.106H116.429V252.535C116.429 253.336 116.629 253.931 117.03 254.319C117.43 254.695 117.988 254.883 118.702 254.883C119.49 254.883 120.123 254.62 120.599 254.094C121.087 253.555 121.331 252.785 121.331 251.783V247.106H123.266V256.367H121.369V254.977H121.068C120.893 255.352 120.58 255.709 120.129 256.047C119.678 256.373 119.015 256.536 118.138 256.536ZM126.126 256.367V247.106H128.023V248.195H128.324C128.474 247.807 128.712 247.525 129.038 247.35C129.376 247.162 129.789 247.068 130.278 247.068H131.386V248.815H130.202C129.576 248.815 129.063 248.991 128.662 249.341C128.261 249.679 128.061 250.205 128.061 250.919V256.367H126.126ZM137.306 256.63C136.366 256.63 135.546 256.435 134.845 256.047C134.144 255.647 133.593 255.089 133.192 254.375C132.804 253.649 132.609 252.81 132.609 251.858V251.633C132.609 250.669 132.804 249.83 133.192 249.116C133.58 248.389 134.119 247.832 134.807 247.444C135.509 247.043 136.316 246.843 137.23 246.843C138.12 246.843 138.896 247.043 139.56 247.444C140.236 247.832 140.762 248.377 141.138 249.078C141.513 249.78 141.701 250.6 141.701 251.539V252.272H134.582C134.607 253.086 134.876 253.737 135.39 254.225C135.916 254.701 136.567 254.939 137.343 254.939C138.07 254.939 138.614 254.776 138.977 254.451C139.353 254.125 139.641 253.749 139.842 253.324L141.438 254.15C141.263 254.501 141.006 254.87 140.668 255.258C140.342 255.647 139.91 255.972 139.372 256.235C138.833 256.498 138.145 256.63 137.306 256.63ZM134.601 250.788H139.729C139.679 250.086 139.428 249.542 138.977 249.153C138.527 248.753 137.938 248.552 137.212 248.552C136.485 248.552 135.891 248.753 135.427 249.153C134.976 249.542 134.701 250.086 134.601 250.788ZM77.178 282.63C76.5143 282.63 75.9194 282.517 75.3935 282.291C74.88 282.066 74.4668 281.734 74.1537 281.296C73.8531 280.858 73.7029 280.325 73.7029 279.699C73.7029 279.061 73.8531 278.535 74.1537 278.121C74.4668 277.696 74.8863 277.376 75.4123 277.163C75.9507 276.95 76.5581 276.844 77.2343 276.844H80.052V276.243C80.052 275.704 79.8892 275.272 79.5636 274.947C79.238 274.621 78.7371 274.458 78.0609 274.458C77.3971 274.458 76.89 274.615 76.5393 274.928C76.1887 275.241 75.957 275.648 75.8443 276.149L74.041 275.567C74.1913 275.066 74.4292 274.615 74.7548 274.214C75.0929 273.801 75.5375 273.469 76.0885 273.219C76.6395 272.968 77.3032 272.843 78.0796 272.843C79.2818 272.843 80.2273 273.15 80.9161 273.763C81.6049 274.377 81.9492 275.247 81.9492 276.374V280.188C81.9492 280.563 82.1246 280.751 82.4752 280.751H83.2641V282.367H81.8177C81.3794 282.367 81.0225 282.254 80.747 282.028C80.4715 281.803 80.3338 281.496 80.3338 281.108V281.052H80.052C79.9518 281.24 79.8015 281.459 79.6012 281.709C79.4008 281.96 79.1065 282.179 78.7183 282.367C78.3301 282.542 77.8167 282.63 77.178 282.63ZM77.4598 281.033C78.2362 281.033 78.8623 280.814 79.3382 280.375C79.8141 279.925 80.052 279.311 80.052 278.535V278.347H77.3471C76.8336 278.347 76.4204 278.459 76.1073 278.685C75.7942 278.898 75.6377 279.217 75.6377 279.643C75.6377 280.069 75.8005 280.407 76.1261 280.657C76.4517 280.908 76.8962 281.033 77.4598 281.033ZM85.1454 282.367V273.106H87.0426V274.496H87.3432C87.5185 274.12 87.8315 273.77 88.2824 273.444C88.7332 273.118 89.4032 272.956 90.2923 272.956C90.9936 272.956 91.6135 273.112 92.152 273.425C92.703 273.738 93.135 274.183 93.4481 274.759C93.7612 275.322 93.9177 276.005 93.9177 276.806V282.367H91.9829V276.957C91.9829 276.155 91.7825 275.567 91.3818 275.191C90.9811 274.803 90.4301 274.609 89.7288 274.609C88.9273 274.609 88.2824 274.872 87.794 275.398C87.3181 275.924 87.0802 276.687 87.0802 277.689V282.367H85.1454ZM100.534 282.63C99.7703 282.63 99.0628 282.442 98.4116 282.066C97.7604 281.69 97.2344 281.152 96.8337 280.451C96.4455 279.737 96.2514 278.879 96.2514 277.877V277.595C96.2514 276.606 96.4455 275.754 96.8337 275.041C97.2219 274.327 97.7416 273.782 98.3928 273.406C99.044 273.031 99.7578 272.843 100.534 272.843C101.135 272.843 101.636 272.918 102.037 273.068C102.45 273.219 102.788 273.413 103.051 273.651C103.314 273.876 103.515 274.114 103.652 274.364H103.953V269.217H105.888V282.367H103.991V281.052H103.69C103.452 281.452 103.089 281.816 102.601 282.141C102.125 282.467 101.436 282.63 100.534 282.63ZM101.079 280.939C101.918 280.939 102.607 280.67 103.145 280.131C103.696 279.593 103.972 278.823 103.972 277.821V277.652C103.972 276.662 103.703 275.898 103.164 275.36C102.626 274.822 101.931 274.552 101.079 274.552C100.252 274.552 99.5637 274.822 99.0127 275.36C98.4742 275.898 98.2049 276.662 98.2049 277.652V277.821C98.2049 278.823 98.4742 279.593 99.0127 280.131C99.5637 280.67 100.252 280.939 101.079 280.939ZM117.318 282.63C116.141 282.63 115.164 282.367 114.388 281.841C113.611 281.315 113.136 280.519 112.96 279.455L114.764 279.023C114.864 279.536 115.033 279.943 115.271 280.244C115.509 280.544 115.803 280.757 116.154 280.883C116.517 281.008 116.905 281.07 117.318 281.07C117.932 281.07 118.401 280.951 118.727 280.714C119.065 280.476 119.234 280.169 119.234 279.793C119.234 279.417 119.078 279.142 118.765 278.967C118.452 278.791 117.988 278.647 117.375 278.535L116.736 278.422C116.11 278.309 115.54 278.146 115.027 277.933C114.513 277.721 114.106 277.426 113.806 277.051C113.505 276.675 113.355 276.193 113.355 275.604C113.355 274.728 113.68 274.051 114.332 273.575C114.983 273.087 115.847 272.843 116.924 272.843C117.963 272.843 118.815 273.081 119.478 273.557C120.155 274.02 120.593 274.652 120.793 275.454L118.99 275.961C118.877 275.398 118.639 275.003 118.276 274.778C117.913 274.54 117.462 274.421 116.924 274.421C116.398 274.421 115.985 274.521 115.684 274.721C115.383 274.909 115.233 275.178 115.233 275.529C115.233 275.905 115.377 276.18 115.665 276.356C115.966 276.531 116.367 276.662 116.867 276.75L117.525 276.863C118.189 276.975 118.796 277.132 119.347 277.332C119.898 277.533 120.33 277.821 120.643 278.196C120.969 278.572 121.131 279.073 121.131 279.699C121.131 280.626 120.787 281.346 120.098 281.859C119.41 282.373 118.483 282.63 117.318 282.63ZM126.194 282.63C125.53 282.63 124.935 282.517 124.409 282.291C123.896 282.066 123.482 281.734 123.169 281.296C122.869 280.858 122.718 280.325 122.718 279.699C122.718 279.061 122.869 278.535 123.169 278.121C123.482 277.696 123.902 277.376 124.428 277.163C124.966 276.95 125.574 276.844 126.25 276.844H129.068V276.243C129.068 275.704 128.905 275.272 128.579 274.947C128.254 274.621 127.753 274.458 127.076 274.458C126.413 274.458 125.906 274.615 125.555 274.928C125.204 275.241 124.973 275.648 124.86 276.149L123.057 275.567C123.207 275.066 123.445 274.615 123.77 274.214C124.109 273.801 124.553 273.469 125.104 273.219C125.655 272.968 126.319 272.843 127.095 272.843C128.297 272.843 129.243 273.15 129.932 273.763C130.62 274.377 130.965 275.247 130.965 276.374V280.188C130.965 280.563 131.14 280.751 131.491 280.751H132.28V282.367H130.833C130.395 282.367 130.038 282.254 129.763 282.028C129.487 281.803 129.349 281.496 129.349 281.108V281.052H129.068C128.967 281.24 128.817 281.459 128.617 281.709C128.416 281.96 128.122 282.179 127.734 282.367C127.346 282.542 126.832 282.63 126.194 282.63ZM126.475 281.033C127.252 281.033 127.878 280.814 128.354 280.375C128.83 279.925 129.068 279.311 129.068 278.535V278.347H126.363C125.849 278.347 125.436 278.459 125.123 278.685C124.81 278.898 124.653 279.217 124.653 279.643C124.653 280.069 124.816 280.407 125.142 280.657C125.467 280.908 125.912 281.033 126.475 281.033ZM135.191 282.367V274.74H132.598V273.106H135.191V271.077C135.191 270.514 135.36 270.063 135.698 269.725C136.036 269.387 136.487 269.217 137.05 269.217H139.436V270.852H137.67C137.307 270.852 137.126 271.04 137.126 271.415V273.106H139.793V274.74H137.126V282.367H135.191ZM145.634 282.63C144.695 282.63 143.874 282.435 143.173 282.047C142.472 281.647 141.921 281.089 141.52 280.375C141.132 279.649 140.938 278.81 140.938 277.858V277.633C140.938 276.669 141.132 275.83 141.52 275.116C141.908 274.389 142.447 273.832 143.136 273.444C143.837 273.043 144.645 272.843 145.559 272.843C146.448 272.843 147.224 273.043 147.888 273.444C148.564 273.832 149.09 274.377 149.466 275.078C149.842 275.78 150.029 276.6 150.029 277.539V278.272H142.91C142.935 279.086 143.204 279.737 143.718 280.225C144.244 280.701 144.895 280.939 145.671 280.939C146.398 280.939 146.943 280.776 147.306 280.451C147.681 280.125 147.969 279.749 148.17 279.324L149.766 280.15C149.591 280.501 149.334 280.87 148.996 281.258C148.671 281.647 148.239 281.972 147.7 282.235C147.162 282.498 146.473 282.63 145.634 282.63ZM142.929 276.788H148.057C148.007 276.086 147.756 275.542 147.306 275.153C146.855 274.753 146.266 274.552 145.54 274.552C144.814 274.552 144.219 274.753 143.755 275.153C143.305 275.542 143.029 276.086 142.929 276.788Z" fill="white"/>
<path d="M145.807 109.564V83.997C145.796 75.0839 142.246 66.5394 135.936 60.2369C129.627 53.9344 121.072 50.3884 112.149 50.3765C93.6128 50.3765 78.5286 65.4597 78.5286 83.997V109.538C62.7625 120.316 52.3809 138.432 52.3809 158.88C52.3809 191.769 79.2266 218.582 112.149 218.582C145.072 218.582 171.918 191.769 171.918 158.88C171.918 138.448 161.552 120.345 145.807 109.564ZM116.252 167.477V186.428C116.255 186.64 116.215 186.851 116.134 187.047C116.054 187.244 115.935 187.422 115.785 187.572C115.635 187.722 115.456 187.84 115.259 187.92C115.062 188 114.851 188.04 114.639 188.037H109.66C109.448 188.04 109.237 188 109.04 187.92C108.843 187.84 108.664 187.722 108.514 187.572C108.364 187.422 108.245 187.244 108.165 187.047C108.084 186.851 108.044 186.64 108.047 186.428V167.04C108.158 163.344 103.947 164.039 103.947 158.112C103.947 155.938 104.811 153.854 106.349 152.318C107.888 150.781 109.974 149.918 112.149 149.918C114.325 149.918 116.411 150.781 117.95 152.318C119.488 153.854 120.352 155.938 120.352 158.112C120.352 163.967 116.252 163.124 116.252 167.477ZM132.915 102.874C119.531 97.9058 104.805 97.9058 91.4208 102.874V84.0102C91.4208 78.5138 93.6066 73.2425 97.4975 69.356C101.388 65.4695 106.666 63.286 112.168 63.286C117.671 63.286 122.948 65.4695 126.839 69.356C130.729 73.2425 132.915 78.5138 132.915 84.0102V102.874Z" fill="white"/>
<g opacity="0.34">
<rect x="43.844" y="341.535" width="136.614" height="6.8307" rx="3.41535" fill="white"/>
<rect x="37.0132" y="358.611" width="150.275" height="6.8307" rx="3.41535" fill="white"/>
<rect x="58.3589" y="375.688" width="107.583" height="6.8307" rx="3.41535" fill="white"/>
</g>
</svg>
