<svg width="28" height="28" viewBox="0 0 28 28" fill="none" xmlns="http://www.w3.org/2000/svg">
<circle cx="14" cy="14" r="14" fill="#ED6154"/>
<path d="M12.2891 13.7109L10.7891 13.3438L11.4062 7.625H17.5391V9.21875H12.9688L12.6562 12.0078C12.8333 11.9036 13.0781 11.8021 13.3906 11.7031C13.7031 11.599 14.0599 11.5469 14.4609 11.5469C14.9974 11.5469 15.4766 11.6354 15.8984 11.8125C16.3255 11.9844 16.6875 12.237 16.9844 12.5703C17.2812 12.8984 17.5078 13.2995 17.6641 13.7734C17.8203 14.2422 17.8984 14.7708 17.8984 15.3594C17.8984 15.8854 17.8203 16.3776 17.6641 16.8359C17.513 17.2943 17.2839 17.6979 16.9766 18.0469C16.6693 18.3958 16.2812 18.6693 15.8125 18.8672C15.349 19.0599 14.7995 19.1562 14.1641 19.1562C13.6901 19.1562 13.2344 19.0885 12.7969 18.9531C12.3646 18.8125 11.9766 18.6068 11.6328 18.3359C11.2891 18.0599 11.013 17.7214 10.8047 17.3203C10.5964 16.9141 10.4766 16.4479 10.4453 15.9219H12.2891C12.3359 16.2917 12.4375 16.6068 12.5938 16.8672C12.7552 17.1224 12.9688 17.3177 13.2344 17.4531C13.5 17.5885 13.8073 17.6562 14.1562 17.6562C14.474 17.6562 14.7474 17.6016 14.9766 17.4922C15.2057 17.3776 15.3958 17.2161 15.5469 17.0078C15.7031 16.7943 15.8177 16.5443 15.8906 16.2578C15.9688 15.9714 16.0078 15.6536 16.0078 15.3047C16.0078 14.9714 15.9635 14.6667 15.875 14.3906C15.7917 14.1146 15.6641 13.875 15.4922 13.6719C15.3255 13.4688 15.1146 13.3125 14.8594 13.2031C14.6042 13.0885 14.3099 13.0312 13.9766 13.0312C13.5286 13.0312 13.1849 13.0964 12.9453 13.2266C12.7109 13.3568 12.4922 13.5182 12.2891 13.7109Z" fill="white"/>
</svg>
