<svg width="29" height="28" viewBox="0 0 29 28" fill="none" xmlns="http://www.w3.org/2000/svg">
<circle cx="14.334" cy="14" r="14" fill="#ED6154"/>
<path d="M12.8574 12.4609H13.9824C14.4199 12.4609 14.7819 12.3854 15.0684 12.2344C15.36 12.0833 15.5762 11.875 15.7168 11.6094C15.8574 11.3438 15.9277 11.0391 15.9277 10.6953C15.9277 10.3359 15.8626 10.0286 15.7324 9.77344C15.6074 9.51302 15.4147 9.3125 15.1543 9.17188C14.8991 9.03125 14.5736 8.96094 14.1777 8.96094C13.8444 8.96094 13.5423 9.02865 13.2715 9.16406C13.0059 9.29427 12.7949 9.48177 12.6387 9.72656C12.4824 9.96615 12.4043 10.2526 12.4043 10.5859H10.5137C10.5137 9.98177 10.6725 9.44531 10.9902 8.97656C11.3079 8.50781 11.7402 8.14062 12.2871 7.875C12.8392 7.60417 13.459 7.46875 14.1465 7.46875C14.8809 7.46875 15.5215 7.59115 16.0684 7.83594C16.6204 8.07552 17.0501 8.4349 17.3574 8.91406C17.6647 9.39323 17.8184 9.98698 17.8184 10.6953C17.8184 11.0182 17.7428 11.3464 17.5918 11.6797C17.4408 12.013 17.2168 12.3177 16.9199 12.5938C16.623 12.8646 16.2533 13.0859 15.8105 13.2578C15.3678 13.4245 14.8548 13.5078 14.2715 13.5078H12.8574V12.4609ZM12.8574 13.9297V12.8984H14.2715C14.9382 12.8984 15.5059 12.9766 15.9746 13.1328C16.4486 13.2891 16.834 13.5052 17.1309 13.7812C17.4277 14.0521 17.6439 14.362 17.7793 14.7109C17.9199 15.0599 17.9902 15.4297 17.9902 15.8203C17.9902 16.3516 17.8939 16.8255 17.7012 17.2422C17.5137 17.6536 17.2454 18.0026 16.8965 18.2891C16.5475 18.5755 16.1387 18.7917 15.6699 18.9375C15.2064 19.0833 14.7012 19.1562 14.1543 19.1562C13.6647 19.1562 13.196 19.0885 12.748 18.9531C12.3001 18.8177 11.8991 18.6172 11.5449 18.3516C11.1908 18.0807 10.9095 17.7448 10.7012 17.3438C10.498 16.9375 10.3965 16.4688 10.3965 15.9375H12.2793C12.2793 16.276 12.3574 16.5755 12.5137 16.8359C12.6751 17.0911 12.8991 17.2917 13.1855 17.4375C13.4772 17.5833 13.8105 17.6562 14.1855 17.6562C14.5814 17.6562 14.9225 17.5859 15.209 17.4453C15.4954 17.3047 15.7142 17.0964 15.8652 16.8203C16.0215 16.5443 16.0996 16.2109 16.0996 15.8203C16.0996 15.3776 16.0137 15.0182 15.8418 14.7422C15.6699 14.4661 15.4251 14.263 15.1074 14.1328C14.7897 13.9974 14.4147 13.9297 13.9824 13.9297H12.8574Z" fill="white"/>
</svg>
