<svg width="29" height="28" viewBox="0 0 29 28" fill="none" xmlns="http://www.w3.org/2000/svg">
<circle cx="14.666" cy="14" r="14" fill="#1976D2"/>
<path d="M18.6035 17.5V19H10.9785V17.7109L14.6816 13.6719C15.0879 13.2135 15.4082 12.8177 15.6426 12.4844C15.877 12.151 16.041 11.8516 16.1348 11.5859C16.2337 11.3151 16.2832 11.0521 16.2832 10.7969C16.2832 10.4375 16.2155 10.1224 16.0801 9.85156C15.9499 9.57552 15.7572 9.35938 15.502 9.20312C15.2467 9.04167 14.9368 8.96094 14.5723 8.96094C14.1504 8.96094 13.7962 9.05208 13.5098 9.23438C13.2233 9.41667 13.0072 9.66927 12.8613 9.99219C12.7155 10.3099 12.6426 10.6745 12.6426 11.0859H10.7598C10.7598 10.4245 10.9108 9.82031 11.2129 9.27344C11.515 8.72135 11.9525 8.28385 12.5254 7.96094C13.0983 7.63281 13.7884 7.46875 14.5957 7.46875C15.3561 7.46875 16.002 7.59635 16.5332 7.85156C17.0645 8.10677 17.4681 8.46875 17.7441 8.9375C18.0254 9.40625 18.166 9.96094 18.166 10.6016C18.166 10.9557 18.1087 11.3073 17.9941 11.6562C17.8796 12.0052 17.7155 12.3542 17.502 12.7031C17.2936 13.0469 17.0462 13.3932 16.7598 13.7422C16.4733 14.0859 16.1582 14.4349 15.8145 14.7891L13.3535 17.5H18.6035Z" fill="white"/>
</svg>
