<svg width="521" height="445" viewBox="0 0 521 445" fill="none" xmlns="http://www.w3.org/2000/svg">
<g clip-path="url(#clip0_32_962)">
<rect x="0.251465" y="0.749268" width="520.749" height="444" rx="25.3714" fill="#F4F4F4"/>
<mask id="mask0_32_962" style="mask-type:alpha" maskUnits="userSpaceOnUse" x="-1" y="1" width="524" height="444">
<rect width="522.994" height="444" transform="translate(-0.49585 1)" fill="url(#paint0_linear_32_962)"/>
</mask>
<g mask="url(#mask0_32_962)">
<mask id="mask1_32_962" style="mask-type:alpha" maskUnits="userSpaceOnUse" x="-1" y="1" width="524" height="444">
<rect width="522.994" height="444" transform="translate(-0.494873 1)" fill="url(#paint1_linear_32_962)"/>
</mask>
<g mask="url(#mask1_32_962)">
<g clip-path="url(#clip1_32_962)">
<g opacity="0.1">
<path d="M40.3643 1H41.7262V442.276H40.3643V1ZM83.9471 1H85.309V442.276H83.9471V1ZM126.168 1H127.53V442.276H126.168V1ZM169.751 1H171.113V442.276H169.751V1ZM211.972 1H213.334V442.276H211.972V1ZM255.554 1H256.916V442.276H255.554V1ZM299.137 1H300.499V442.276H299.137V1ZM341.358 1H342.72V442.276H341.358V1ZM384.941 1H386.303V442.276H384.941V1ZM427.162 1H428.524V442.276H427.162V1ZM470.745 1H472.107V442.276H470.745V1Z" fill="#D4D4D8"/>
</g>
<g filter="url(#filter0_f_32_962)">
<path d="M514.328 178.055C502.283 171.415 488.704 166.283 470.745 164.435C441.534 161.41 418.063 149.395 393.113 135.834L391.751 134.472L387.665 131.748C360.847 117.237 331.827 103.034 293.69 100.423C255.284 97.7725 230.909 116.352 210.61 137.196C205.834 142.171 201.57 147.023 196.99 152.178L195.628 153.54C191.064 158.69 186.817 163.597 182.009 168.521C172.599 177.999 163.122 186.19 152.046 190.313C140.512 194.623 129.911 201.576 119.358 209.38C116.67 211.375 113.929 212.753 111.187 214.828C103.148 220.906 94.6252 228.005 85.3093 233.896C63.4245 247.751 36.7605 258.759 -3.21826 258.411V261.135C37.3385 261.496 64.4101 249.341 86.6713 235.258C96.0812 229.287 104.483 223.643 112.549 217.552C115.264 215.49 118.072 212.683 120.72 210.742C131.246 202.951 142.25 195.838 153.408 191.675C165.035 187.351 173.88 179.455 183.371 169.883C188.129 165.091 193.634 160.149 198.352 154.902C202.896 149.841 208.508 143.511 213.334 138.558C233.404 117.942 256.453 100.59 293.69 103.147C331.208 105.731 359.525 119.987 386.303 134.472L391.751 137.196C416.62 150.717 440.956 164.08 470.745 167.159C488.92 169.034 502.243 173.911 514.328 180.779V178.055Z" fill="#232831"/>
</g>
<path d="M514.328 178.056C502.269 171.363 488.758 166.283 470.745 164.436C441.399 161.398 416.687 148.019 391.751 134.473C390.057 133.536 389.386 132.673 387.665 131.749C360.86 117.239 331.665 103.034 293.689 100.424C255.566 97.8003 230.841 116.41 210.61 137.197C205.77 142.176 201.547 147.132 196.99 152.178V153.54C192.416 158.694 186.825 163.593 182.008 168.522C172.572 178.025 163.257 186.137 152.045 190.313C140.619 194.583 129.897 201.577 119.358 209.381C116.67 211.349 115.264 212.781 112.548 214.829C104.483 220.919 96.0138 228.007 86.6711 233.896C64.6922 247.817 36.9081 258.76 -3.21851 258.412V259.774C37.1904 260.135 64.4905 247.924 86.6711 233.896C96.0541 227.953 104.483 222.294 112.548 216.191C115.264 214.143 118.072 211.335 120.72 209.381C131.259 201.577 142.142 195.878 153.407 191.675C164.887 187.392 173.893 178.066 183.37 168.522C188.116 163.743 193.634 158.787 198.352 153.54C202.923 148.481 207.146 143.525 211.972 138.559C232.095 117.879 256.157 99.2025 293.689 101.786C331.356 104.383 359.525 118.615 386.303 133.111L391.751 135.835C416.633 149.354 441.103 162.746 470.745 165.798C488.866 167.672 502.242 172.605 514.328 179.418V178.056Z" fill="#232831"/>
<g filter="url(#filter1_f_32_962)">
<path d="M514.328 21.4298C512.553 21.4837 510.722 21.3894 508.88 21.4298C497.937 21.6724 485.071 21.1721 469.383 18.7059C453.117 16.1723 439.758 22.5417 427.162 32.3255C414.607 42.0689 402.868 55.1909 391.751 69.0985L390.389 71.8225C379.904 84.935 368.859 97.5575 357.702 107.233C345.859 117.516 334.018 127.204 319.567 126.301C304.202 125.331 291.107 131.228 280.07 139.921C269.558 148.182 260.57 158.914 251.469 169.884L250.107 171.246C240.536 182.755 230.992 193.447 220.144 201.209C209.349 208.917 196.85 214.315 182.009 212.105C145.041 206.579 128.236 201.786 116.634 197.123C111.374 194.938 106.627 193.092 101.653 190.313V188.951C95.3718 185.515 89.1405 183.656 82.5854 180.78C53.9927 168.314 27.4715 159.299 -3.21826 160.35V163.074C26.9204 162.036 52.7517 169.73 81.2235 182.141C87.7114 184.987 94.0771 188.27 100.291 191.675C105.386 194.411 110.747 197.489 116.634 199.847C128.531 204.631 145.001 209.29 182.009 214.829C197.683 217.16 210.281 211.965 221.506 203.933C232.69 195.928 241.938 184.063 251.469 172.608L252.831 171.246C261.999 160.195 271.162 149.368 281.432 141.283C292.119 132.887 303.687 128.109 318.205 129.025C333.664 130.009 346.939 120.469 359.064 109.957C370.41 100.12 381.319 87.5915 391.751 74.5464V73.1844L394.475 71.8225C405.632 57.8879 416.264 44.5638 428.524 35.0494C440.744 25.5486 454.072 19.0445 469.383 21.4298C482.488 23.4787 495.622 24.5441 508.88 24.1537C510.722 24.1133 512.58 24.2211 514.328 24.1537V21.4298Z" fill="#F8961E"/>
</g>
<path d="M514.328 22.7916C512.566 22.8455 510.721 22.7512 508.88 22.7916C497.91 23.0342 485.124 22.5343 469.383 20.0677C453.359 17.5606 439.65 23.9691 427.162 33.6873C414.674 43.3786 404.243 56.5502 393.113 70.4603L390.389 73.1842C379.93 86.2857 368.913 98.8771 357.702 108.595C345.778 118.934 334.26 128.593 319.567 127.663C304.39 126.706 291.012 132.669 280.07 141.282C269.611 149.505 260.583 160.26 251.469 171.246L250.107 172.608C240.562 184.105 231.072 194.753 220.143 202.571C209.241 210.375 197.051 215.717 182.008 213.466C145.041 207.94 128.316 203.162 116.634 198.485C110.854 196.153 106.774 193.063 101.653 190.313C95.3851 186.88 89.127 183.652 82.5852 180.779C54.0193 168.338 27.3234 160.661 -3.21851 161.712V163.074C27.0546 162.036 52.7111 169.7 81.2232 182.141C89.4233 185.7 95.1152 188.912 100.291 191.675C105.399 194.398 110.787 197.488 116.634 199.847C128.464 204.591 145.014 209.302 182.008 214.828C197.468 217.147 210.388 211.885 221.505 203.933C232.609 195.98 241.938 185.453 251.469 173.97L252.831 171.246C261.999 160.22 271.108 149.41 281.432 141.282C292.213 132.804 303.458 128.095 318.205 129.025C333.395 129.982 347.006 120.43 359.064 109.957C370.356 100.158 381.306 87.6207 391.751 74.5462L393.113 71.8223C404.27 57.8717 416.183 44.6192 428.524 35.0493C440.837 25.4793 453.843 19.0034 469.383 21.4296C482.453 23.4717 495.658 24.5457 508.88 24.1536C510.721 24.1131 512.566 24.221 514.328 24.1536V22.7916Z" fill="#F8961E"/>
<g filter="url(#filter2_f_32_962)">
<path d="M514.328 94.9754C499.635 98.033 483.997 106.378 461.211 124.939C446.706 136.738 431.878 138.284 417.628 134.472C403.258 130.634 389.263 121.622 374.046 109.957C369.125 106.186 364.118 101.727 359.064 97.6993C348.538 89.2943 337.575 80.7673 326.377 73.184C309.762 61.9369 292.188 49.812 273.26 47.3067C235.217 42.2691 211.523 69.1393 192.904 93.6134C189.369 98.2739 185.222 104.123 182.009 108.595C176.712 115.963 171.974 122.005 167.027 127.663C159.096 136.741 151.98 142.185 143.874 141.282C134.518 140.232 125.184 144.108 116.634 150.816C108.085 157.524 100.212 166.928 92.1192 176.693C89.7622 179.547 87.6394 181.989 85.3093 184.865C79.9366 191.629 73.377 198.87 67.6038 205.294C59.807 213.726 53.0581 220.4 45.8124 223C32.3965 227.795 22.93 222.506 10.4014 214.828L7.67744 212.104C4.24954 210.016 0.881778 208.744 -3.21826 206.656V209.38C0.330625 211.239 3.27742 212.969 6.31548 214.828L9.03941 216.19C21.3664 223.773 32.5083 230.964 47.1744 225.724C55.0922 222.895 62.5175 215.129 70.3278 206.656C75.8931 200.622 80.9985 194.58 86.6713 187.589C88.9969 184.733 91.1421 180.857 93.4811 178.055C101.547 168.303 109.689 160.046 117.996 153.54C126.304 147.021 135.539 143.077 143.874 144.006C153.445 145.084 161.766 138.143 169.751 129.024C174.752 123.286 179.356 117.419 184.733 109.957C187.919 105.512 190.839 100.836 194.266 96.3374C212.817 71.9306 236.804 45.1951 273.26 50.0306C291.596 52.4551 308.547 64.7686 325.015 75.9079C336.132 83.4239 347.217 92.0587 357.702 100.423C362.783 104.478 367.683 107.494 372.684 111.319C387.901 122.997 402.693 133.196 417.628 137.196C432.684 141.224 447.383 140.028 462.573 127.663C484.807 109.559 500.28 100.73 514.328 97.6993V94.9754Z" fill="#ED6154"/>
</g>
<path d="M514.328 96.3372C499.796 99.3961 483.862 107.852 461.211 126.3C446.558 138.253 432.079 139.702 417.628 135.834C403.11 131.953 389.262 123.002 374.045 111.319C369.012 107.427 364.023 103.047 359.064 99.0611C348.551 90.6659 337.561 80.7435 326.377 73.1838C309.802 61.9587 292.04 51.1614 273.26 48.6685C235.62 43.6825 211.509 70.5037 192.904 94.9752C189.495 99.502 186.655 103.977 183.37 108.595C178.061 115.993 173.349 123.351 168.389 129.024C160.444 138.12 152.356 143.601 143.874 142.644C134.786 141.633 126.492 145.507 117.996 152.178C109.5 158.835 100.211 168.285 92.1189 178.055C89.7697 180.904 87.629 183.353 85.3091 186.227C79.9173 193.006 74.7556 200.215 68.9655 206.656C61.1687 215.105 53.2191 221.707 45.8122 224.362C32.0871 229.28 22.876 223.857 10.4011 216.19C9.43325 215.597 8.69885 214.072 7.6772 213.466C4.1255 211.281 0.477669 209.947 -3.21851 208.018V209.38C0.464808 211.294 3.18307 212.928 6.31524 214.828L10.4011 216.19C22.7819 223.79 31.4688 230.871 45.8122 225.724C53.5686 222.961 62.5173 215.146 70.3275 206.656C75.8794 200.646 80.9848 194.569 86.6711 187.589C88.9834 184.73 91.142 182.254 93.4809 179.417C101.56 169.661 109.621 160.116 117.996 153.54C126.371 146.977 135.27 143.036 143.874 144.006C153.068 145.03 160.417 139.496 168.389 130.386C173.363 124.673 179.396 117.409 184.732 109.957C187.932 105.51 190.811 100.892 194.266 96.3372C212.831 71.9061 236.4 45.1523 273.26 50.0304C291.73 52.483 308.493 63.3611 325.015 74.5458C336.145 82.0786 347.216 92.0548 357.702 100.423C362.783 104.479 367.71 107.492 372.683 111.319C387.914 123.002 402.841 133.234 417.628 137.196C432.482 141.171 447.571 139.885 462.573 127.662C484.942 109.43 500.118 100.718 514.328 97.6991V96.3372Z" fill="#ED6154"/>
</g>
</g>
</g>
<mask id="mask2_32_962" style="mask-type:alpha" maskUnits="userSpaceOnUse" x="38" y="65" width="446" height="378">
<rect width="445.252" height="378" transform="translate(38.374 65)" fill="url(#paint2_linear_32_962)"/>
</mask>
<g mask="url(#mask2_32_962)">
<path opacity="0.3" d="M381.588 262.117C381.588 195.52 327.081 141.528 259.84 141.528C192.598 141.528 138.091 195.52 138.091 262.117C138.091 328.713 192.586 382.705 259.84 382.705C327.081 382.705 381.588 328.713 381.588 262.117Z" stroke="url(#paint3_linear_32_962)" stroke-width="1.73926" stroke-miterlimit="10"/>
<path opacity="0.7" d="M423.33 263.276C423.33 174.58 350.665 102.104 260.999 102.104C171.356 102.104 98.6675 174.58 98.6675 263.276C98.6675 351.972 171.344 423.288 260.999 423.288C350.642 423.288 423.33 351.972 423.33 263.276V263.276Z" stroke="url(#paint4_linear_32_962)" stroke-width="1.73926" stroke-miterlimit="10"/>
<g clip-path="url(#clip2_32_962)">
<path d="M324.772 103.264H200.705C183.094 103.264 168.238 118.12 168.238 135.73V459.233C168.238 476.844 183.094 490.54 200.705 490.54H324.772C342.382 490.54 356.079 476.844 356.079 459.233V135.73C356.079 118.12 342.382 103.264 324.772 103.264Z" fill="white" stroke="#E2E2E2" stroke-width="1.15951"/>
<path d="M322.454 110.221H200.705C185.977 110.221 174.037 122.161 174.037 136.889V455.754C174.037 470.483 185.977 482.423 200.705 482.423H322.454C337.183 482.423 349.123 470.483 349.123 455.754V136.889C349.123 122.161 337.183 110.221 322.454 110.221Z" fill="white"/>
<mask id="mask3_32_962" style="mask-type:luminance" maskUnits="userSpaceOnUse" x="183" y="175" width="148" height="92">
<path d="M324.771 175.154H189.108C185.906 175.154 183.311 177.764 183.311 180.951V260.957C183.311 264.144 185.906 266.755 189.108 266.755H324.771C327.973 266.755 330.568 264.144 330.568 260.957V180.951C330.568 177.764 327.973 175.154 324.771 175.154Z" fill="white"/>
</mask>
<g mask="url(#mask3_32_962)">
<path d="M183.311 180.951C183.311 177.764 185.906 175.154 189.108 175.154H324.771C327.972 175.154 330.568 177.764 330.568 180.951V260.957C330.568 264.144 327.972 266.755 324.771 266.755H189.108C185.906 266.755 183.311 264.144 183.311 260.957V180.951Z" fill="#ED6154"/>
<g opacity="0.7">
<path d="M211.138 228.491H196.065C194.701 228.491 193.746 227.606 193.746 226.172V215.736C193.746 214.303 194.701 213.417 196.065 213.417H211.138C212.502 213.417 213.458 214.303 213.458 215.736V226.172C213.458 227.649 212.543 228.491 211.138 228.491Z" fill="white" fill-opacity="0.23" stroke="white" stroke-width="0.579755" stroke-miterlimit="10"/>
<path d="M205.344 222.694H200.706C200.414 222.694 200.706 222.981 200.706 222.694V219.216C200.414 219.216 200.706 218.929 200.706 219.216H205.344C205.344 218.929 205.635 219.216 205.344 219.216V222.694C205.599 222.694 205.307 222.945 205.344 222.694Z" fill="white" fill-opacity="0.19"/>
<path d="M205.344 222.694H200.706C200.414 222.694 200.706 222.981 200.706 222.694V219.216C200.706 218.929 200.414 219.216 200.706 219.216H205.344C205.635 219.216 205.344 218.929 205.344 219.216V222.694C205.307 222.945 205.599 222.694 205.344 222.694Z" stroke="white" stroke-width="0.579755" stroke-miterlimit="10"/>
<path d="M193.746 220.375H200.703M193.746 221.534H200.703M206.5 220.375H213.458M206.5 221.534H213.458M203.022 219.215V213.417M203.022 228.491V222.694M204.181 216.896H213.458M193.746 225.013H204.181" stroke="white" stroke-width="0.579755" stroke-miterlimit="10"/>
</g>
<path d="M307.379 185.589L303.9 193.705H301.581L300.422 186.748C300.327 186.371 300.706 186.905 300.422 186.748C299.946 186.497 298.767 185.714 298.103 185.589H301.581C301.992 185.589 302.645 186.277 302.741 186.748V191.386L305.06 185.589H307.379ZM315.495 191.386C315.495 189.406 313.144 188.788 313.176 187.908C313.176 187.625 312.607 186.811 313.176 186.748C313.462 186.717 314.609 187.499 315.495 187.908V185.589C315.02 185.431 315.096 185.589 314.336 185.589C312.404 185.589 310.857 186.462 310.857 187.908C310.857 189.008 311.288 189.881 312.017 190.227C312.777 190.604 313.176 191.041 313.176 191.386C313.176 191.889 312.587 192.546 312.017 192.546C311.035 192.577 310.172 191.606 309.698 191.386V193.705C310.172 193.925 311.13 193.674 312.017 193.705C314.106 193.705 315.495 192.958 315.495 191.386ZM320.133 193.705H322.452L321.293 185.589H318.974C318.594 185.589 317.941 186.402 317.814 186.748L315.495 193.705H317.814V192.546H320.133V193.705ZM318.974 190.227V187.908L320.133 190.227H318.974ZM309.698 185.589L308.538 193.705H306.219L308.538 185.589H309.698Z" fill="white"/>
<g opacity="0.6">
<path d="M320.136 226.172C320.057 226.172 320.175 226.213 320.136 226.172C319.937 226.049 320.017 225.216 320.136 225.012C320.889 223.662 321.295 223.047 321.295 221.534C321.295 220.02 320.889 218.205 320.136 216.896C320.017 216.691 319.937 215.859 320.136 215.736C320.334 215.613 321.176 215.532 321.295 215.736C322.128 217.208 322.455 219.856 322.455 221.534C322.455 223.21 322.128 224.699 321.295 226.172C321.217 226.294 320.294 226.172 320.136 226.172Z" fill="white"/>
<path d="M318.978 225.013C318.896 225.013 319.018 225.052 318.978 225.013C318.775 224.894 317.696 224.051 317.818 223.853C318.428 222.864 318.978 222.642 318.978 221.534C318.978 220.386 318.387 219.045 317.818 218.056C317.696 217.858 318.775 217.015 318.978 216.896C318.856 216.698 319.182 216.777 318.978 216.896C319.669 218.004 320.137 220.268 320.137 221.534C320.137 222.839 319.629 223.905 318.978 225.013C319.14 225.013 318.856 225.131 318.978 225.013ZM316.658 223.853C316.577 223.853 316.7 223.893 316.658 223.853C316.456 223.735 316.536 224.051 316.658 223.853C317.065 223.141 316.658 221.206 316.658 220.375C316.658 219.584 317.106 218.767 316.658 218.056C316.456 218.174 316.536 217.858 316.658 218.056C316.536 217.858 316.863 217.937 316.658 218.056C317.146 218.887 317.818 219.426 317.818 220.375C317.818 221.324 317.146 223.022 316.658 223.853C316.821 223.853 316.577 223.972 316.658 223.853ZM314.339 222.694C314.259 222.694 314.421 222.733 314.339 222.694C314.137 222.575 314.218 222.891 314.339 222.694C314.584 222.298 314.339 220.849 314.339 220.375C314.339 219.94 314.584 219.611 314.339 219.215C314.096 219.334 314.218 219.017 314.339 219.215C314.543 219.096 315.377 218.977 315.499 219.215C315.824 219.729 315.499 219.781 315.499 220.375C315.499 220.969 315.864 222.179 315.499 222.694C315.417 222.891 314.502 222.694 314.339 222.694Z" fill="white"/>
</g>
<path d="M193.36 252.11C193.196 252.11 193.054 252.053 192.932 251.939C192.818 251.817 192.761 251.678 192.761 251.521C192.761 251.357 192.818 251.218 192.932 251.104C193.054 250.982 193.196 250.922 193.36 250.922C193.525 250.922 193.664 250.982 193.778 251.104C193.892 251.218 193.949 251.357 193.949 251.521C193.949 251.678 193.892 251.817 193.778 251.939C193.664 252.053 193.525 252.11 193.36 252.11ZM196.867 252.11C196.703 252.11 196.56 252.053 196.439 251.939C196.325 251.817 196.268 251.678 196.268 251.521C196.268 251.357 196.325 251.218 196.439 251.104C196.56 250.982 196.703 250.922 196.867 250.922C197.031 250.922 197.17 250.982 197.284 251.104C197.399 251.218 197.456 251.357 197.456 251.521C197.456 251.678 197.399 251.817 197.284 251.939C197.17 252.053 197.031 252.11 196.867 252.11ZM200.374 252.11C200.209 252.11 200.067 252.053 199.945 251.939C199.831 251.817 199.774 251.678 199.774 251.521C199.774 251.357 199.831 251.218 199.945 251.104C200.067 250.982 200.209 250.922 200.374 250.922C200.538 250.922 200.677 250.982 200.791 251.104C200.905 251.218 200.962 251.357 200.962 251.521C200.962 251.678 200.905 251.817 200.791 251.939C200.677 252.053 200.538 252.11 200.374 252.11ZM203.88 252.11C203.716 252.11 203.573 252.053 203.452 251.939C203.338 251.817 203.281 251.678 203.281 251.521C203.281 251.357 203.338 251.218 203.452 251.104C203.573 250.982 203.716 250.922 203.88 250.922C204.044 250.922 204.184 250.982 204.298 251.104C204.412 251.218 204.469 251.357 204.469 251.521C204.469 251.678 204.412 251.817 204.298 251.939C204.184 252.053 204.044 252.11 203.88 252.11ZM210.995 255V247.989L211.07 247.507H211.883V255H210.995ZM209.314 249.434V248.61C209.464 248.617 209.643 248.567 209.85 248.46C210.056 248.353 210.271 248.214 210.492 248.042C210.713 247.871 210.906 247.693 211.07 247.507L211.626 248.117C211.391 248.367 211.145 248.592 210.888 248.792C210.631 248.991 210.37 249.152 210.106 249.273C209.842 249.387 209.578 249.441 209.314 249.434ZM213.704 255V254.251C213.704 254.015 213.75 253.783 213.843 253.555C213.943 253.319 214.082 253.088 214.261 252.859C214.446 252.631 214.671 252.417 214.935 252.217L216.487 251.05C216.673 250.922 216.833 250.775 216.969 250.611C217.111 250.44 217.222 250.265 217.301 250.087C217.379 249.901 217.418 249.723 217.418 249.552C217.418 249.302 217.358 249.077 217.236 248.877C217.115 248.67 216.944 248.506 216.723 248.385C216.501 248.263 216.241 248.203 215.941 248.203C215.649 248.203 215.392 248.26 215.17 248.374C214.949 248.481 214.767 248.627 214.625 248.813C214.482 248.991 214.378 249.184 214.314 249.391L213.394 249.209C213.479 248.888 213.633 248.588 213.854 248.31C214.082 248.032 214.371 247.807 214.721 247.635C215.071 247.464 215.459 247.379 215.888 247.379C216.387 247.379 216.819 247.475 217.183 247.668C217.547 247.853 217.829 248.11 218.028 248.438C218.235 248.759 218.339 249.127 218.339 249.541C218.339 249.933 218.232 250.304 218.018 250.654C217.804 251.004 217.493 251.343 217.087 251.671L215.62 252.784C215.335 252.998 215.113 253.223 214.956 253.459C214.807 253.694 214.721 253.94 214.699 254.197H218.446V255H213.704ZM221.953 255.128C221.589 255.128 221.257 255.075 220.957 254.968C220.665 254.854 220.411 254.707 220.197 254.529C219.99 254.351 219.826 254.162 219.705 253.962L220.454 253.544C220.533 253.644 220.629 253.758 220.743 253.887C220.864 254.008 221.018 254.112 221.203 254.197C221.389 254.283 221.617 254.326 221.888 254.326C222.374 254.326 222.763 254.186 223.055 253.908C223.348 253.63 223.494 253.28 223.494 252.859C223.494 252.538 223.405 252.267 223.226 252.046C223.055 251.824 222.805 251.657 222.477 251.543C222.149 251.428 221.756 251.371 221.3 251.371H221.096V250.665H221.278C221.728 250.665 222.142 250.715 222.52 250.815C222.898 250.915 223.226 251.061 223.505 251.254C223.79 251.446 224.008 251.682 224.158 251.96C224.315 252.238 224.393 252.559 224.393 252.923C224.393 253.366 224.283 253.755 224.061 254.09C223.847 254.418 223.555 254.675 223.184 254.861C222.813 255.039 222.402 255.128 221.953 255.128ZM221.096 251.296V250.601H221.3C221.913 250.601 222.399 250.497 222.755 250.29C223.119 250.076 223.301 249.773 223.301 249.38C223.301 249.166 223.244 248.97 223.13 248.792C223.016 248.606 222.848 248.46 222.627 248.353C222.413 248.238 222.163 248.181 221.878 248.181C221.685 248.181 221.503 248.21 221.332 248.267C221.168 248.317 221.014 248.395 220.871 248.503C220.736 248.602 220.611 248.731 220.497 248.888L219.79 248.481C219.926 248.26 220.097 248.067 220.304 247.903C220.518 247.739 220.761 247.611 221.032 247.518C221.303 247.425 221.599 247.379 221.92 247.379C222.356 247.379 222.745 247.464 223.087 247.635C223.437 247.807 223.712 248.042 223.911 248.342C224.111 248.635 224.211 248.966 224.211 249.337C224.211 249.651 224.136 249.93 223.986 250.172C223.837 250.415 223.626 250.622 223.355 250.793C223.091 250.965 222.78 251.093 222.424 251.179C222.074 251.257 221.692 251.296 221.278 251.296H221.096ZM228.813 255V253.18H225.356V252.485L228.771 247.507H229.691V252.377H231.222V253.18H229.691V255H228.813ZM226.394 252.377H228.813V248.824L226.394 252.377Z" fill="white"/>
</g>
<path d="M338.687 293.424H283.031C282.39 293.424 281.871 293.943 281.871 294.583V301.54C281.871 302.181 282.39 302.7 283.031 302.7H338.687C339.327 302.7 339.847 302.181 339.847 301.54V294.583C339.847 293.943 339.327 293.424 338.687 293.424Z" fill="white" fill-opacity="0.04"/>
<path d="M337.527 315.454H185.632C184.351 315.454 183.313 316.492 183.313 317.773V405.896C183.313 407.176 184.351 408.215 185.632 408.215H337.527C338.808 408.215 339.846 407.176 339.846 405.896V317.773C339.846 316.492 338.808 315.454 337.527 315.454Z" fill="#F4F4F4"/>
<path d="M338.686 180.951C338.686 177.749 341.282 175.153 344.484 175.153H349.122V267.914H344.484C341.282 267.914 338.686 265.318 338.686 262.117V180.951Z" fill="#F4F4F4"/>
<path d="M280.711 116.018H242.447C238.042 116.018 234.331 119.652 234.331 124.135C234.331 128.618 238.042 132.251 242.447 132.251H280.711C285.116 132.251 288.827 128.618 288.827 124.135C288.827 119.652 285.116 116.018 280.711 116.018Z" fill="#DCDDDE"/>
<rect opacity="0.8" x="190.001" y="322" width="139" height="12" rx="6" fill="white"/>
<rect opacity="0.8" x="190.001" y="337" width="139" height="12" rx="6" fill="white"/>
<rect opacity="0.8" x="190.001" y="352" width="139" height="12" rx="6" fill="white"/>
<rect opacity="0.8" x="190.001" y="367" width="78" height="12" rx="6" fill="white"/>
</g>
</g>
</g>
<defs>
<filter id="filter0_f_32_962" x="-11.39" y="91.9984" width="533.889" height="177.316" filterUnits="userSpaceOnUse" color-interpolation-filters="sRGB">
<feFlood flood-opacity="0" result="BackgroundImageFix"/>
<feBlend mode="normal" in="SourceGraphic" in2="BackgroundImageFix" result="shape"/>
<feGaussianBlur stdDeviation="4.08589" result="effect1_foregroundBlur_32_962"/>
</filter>
<filter id="filter1_f_32_962" x="-11.39" y="9.97641" width="533.889" height="213.585" filterUnits="userSpaceOnUse" color-interpolation-filters="sRGB">
<feFlood flood-opacity="0" result="BackgroundImageFix"/>
<feBlend mode="normal" in="SourceGraphic" in2="BackgroundImageFix" result="shape"/>
<feGaussianBlur stdDeviation="4.08589" result="effect1_foregroundBlur_32_962"/>
</filter>
<filter id="filter2_f_32_962" x="-11.39" y="38.5204" width="533.889" height="197.167" filterUnits="userSpaceOnUse" color-interpolation-filters="sRGB">
<feFlood flood-opacity="0" result="BackgroundImageFix"/>
<feBlend mode="normal" in="SourceGraphic" in2="BackgroundImageFix" result="shape"/>
<feGaussianBlur stdDeviation="4.08589" result="effect1_foregroundBlur_32_962"/>
</filter>
<linearGradient id="paint0_linear_32_962" x1="261.497" y1="0" x2="261.497" y2="444" gradientUnits="userSpaceOnUse">
<stop offset="0.7"/>
<stop offset="1" stop-opacity="0"/>
</linearGradient>
<linearGradient id="paint1_linear_32_962" x1="522.994" y1="222" x2="0" y2="222" gradientUnits="userSpaceOnUse">
<stop stop-opacity="0"/>
<stop offset="1"/>
</linearGradient>
<linearGradient id="paint2_linear_32_962" x1="222.626" y1="0" x2="222.626" y2="378" gradientUnits="userSpaceOnUse">
<stop/>
<stop offset="0.7"/>
<stop offset="1" stop-opacity="0"/>
</linearGradient>
<linearGradient id="paint3_linear_32_962" x1="137.602" y1="262.157" x2="382.031" y2="262.157" gradientUnits="userSpaceOnUse">
<stop stop-color="#A3A7B1" stop-opacity="0"/>
<stop offset="0.49" stop-color="#A3A7B1"/>
<stop offset="1" stop-color="#A3A7B1" stop-opacity="0"/>
</linearGradient>
<linearGradient id="paint4_linear_32_962" x1="98.0154" y1="262.754" x2="423.912" y2="262.754" gradientUnits="userSpaceOnUse">
<stop stop-color="#A3A7B1" stop-opacity="0"/>
<stop offset="0.49" stop-color="#A3A7B1"/>
<stop offset="1" stop-color="#A3A7B1" stop-opacity="0"/>
</linearGradient>
<clipPath id="clip0_32_962">
<rect x="0.251465" y="0.749268" width="520.749" height="444" rx="25.3714" fill="white"/>
</clipPath>
<clipPath id="clip1_32_962">
<rect width="533.89" height="442.638" fill="white" transform="translate(-11.3906 1)"/>
</clipPath>
<clipPath id="clip2_32_962">
<rect width="189" height="388.436" fill="white" transform="translate(167.079 102.104)"/>
</clipPath>
</defs>
</svg>
