<svg width="521" height="445" viewBox="0 0 521 445" fill="none" xmlns="http://www.w3.org/2000/svg">
<g clip-path="url(#clip0_32_769)">
<rect y="0.749268" width="520.749" height="444" rx="25.3714" fill="#F4F4F4"/>
<g clip-path="url(#clip1_32_769)">
<path d="M38 67C38 44.9086 55.9086 27 78 27H335C357.091 27 375 44.9086 375 67V445H38V67Z" fill="white"/>
<g filter="url(#filter0_f_32_769)">
<rect x="-72.2969" y="-36" width="345.656" height="345.656" rx="172.828" fill="#E6EB87"/>
</g>
<g filter="url(#filter1_f_32_769)">
<rect x="177.344" y="-36" width="345.656" height="345.656" rx="172.828" fill="#ED6154"/>
</g>
<rect x="60.5" y="69.5" width="296" height="185" rx="11.5" fill="white" fill-opacity="0.3"/>
<rect x="60.5" y="69.5" width="296" height="185" rx="11.5" stroke="url(#paint0_linear_32_769)"/>
<path d="M87.413 223.87C87.1217 223.87 86.8683 223.769 86.653 223.566C86.4503 223.351 86.349 223.104 86.349 222.825C86.349 222.534 86.4503 222.287 86.653 222.084C86.8683 221.869 87.1217 221.761 87.413 221.761C87.7043 221.761 87.9513 221.869 88.154 222.084C88.3567 222.287 88.458 222.534 88.458 222.825C88.458 223.104 88.3567 223.351 88.154 223.566C87.9513 223.769 87.7043 223.87 87.413 223.87ZM93.6372 223.87C93.3459 223.87 93.0926 223.769 92.8772 223.566C92.6746 223.351 92.5732 223.104 92.5732 222.825C92.5732 222.534 92.6746 222.287 92.8772 222.084C93.0926 221.869 93.3459 221.761 93.6372 221.761C93.9286 221.761 94.1756 221.869 94.3782 222.084C94.5809 222.287 94.6822 222.534 94.6822 222.825C94.6822 223.104 94.5809 223.351 94.3782 223.566C94.1756 223.769 93.9286 223.87 93.6372 223.87ZM99.8614 223.87C99.5701 223.87 99.3168 223.769 99.1014 223.566C98.8988 223.351 98.7974 223.104 98.7974 222.825C98.7974 222.534 98.8988 222.287 99.1014 222.084C99.3168 221.869 99.5701 221.761 99.8614 221.761C100.153 221.761 100.4 221.869 100.602 222.084C100.805 222.287 100.906 222.534 100.906 222.825C100.906 223.104 100.805 223.351 100.602 223.566C100.4 223.769 100.153 223.87 99.8614 223.87ZM106.086 223.87C105.794 223.87 105.541 223.769 105.326 223.566C105.123 223.351 105.022 223.104 105.022 222.825C105.022 222.534 105.123 222.287 105.326 222.084C105.541 221.869 105.794 221.761 106.086 221.761C106.377 221.761 106.624 221.869 106.827 222.084C107.029 222.287 107.131 222.534 107.131 222.825C107.131 223.104 107.029 223.351 106.827 223.566C106.624 223.769 106.377 223.87 106.086 223.87ZM118.714 229V216.555L118.847 215.7H120.291V229H118.714ZM115.731 219.12V217.657C115.997 217.67 116.314 217.581 116.681 217.391C117.049 217.201 117.429 216.954 117.821 216.65C118.214 216.346 118.556 216.029 118.847 215.7L119.835 216.783C119.417 217.226 118.98 217.625 118.524 217.98C118.068 218.335 117.606 218.62 117.137 218.835C116.669 219.038 116.2 219.133 115.731 219.12ZM123.523 229V227.67C123.523 227.252 123.605 226.84 123.77 226.435C123.947 226.017 124.194 225.605 124.511 225.2C124.84 224.795 125.239 224.415 125.708 224.06L128.463 221.989C128.792 221.761 129.077 221.501 129.318 221.21C129.571 220.906 129.768 220.596 129.907 220.279C130.046 219.95 130.116 219.633 130.116 219.329C130.116 218.886 130.008 218.487 129.793 218.132C129.578 217.765 129.274 217.473 128.881 217.258C128.488 217.043 128.026 216.935 127.494 216.935C126.975 216.935 126.519 217.036 126.126 217.239C125.733 217.429 125.41 217.689 125.157 218.018C124.904 218.335 124.72 218.677 124.606 219.044L122.972 218.721C123.124 218.151 123.396 217.619 123.789 217.125C124.194 216.631 124.707 216.232 125.328 215.928C125.949 215.624 126.639 215.472 127.399 215.472C128.286 215.472 129.052 215.643 129.698 215.985C130.344 216.314 130.844 216.77 131.199 217.353C131.566 217.923 131.75 218.575 131.75 219.31C131.75 220.007 131.56 220.665 131.18 221.286C130.8 221.907 130.249 222.508 129.527 223.091L126.924 225.067C126.417 225.447 126.025 225.846 125.746 226.264C125.48 226.682 125.328 227.119 125.29 227.575H131.94V229H123.523ZM138.164 229.228C137.518 229.228 136.929 229.133 136.397 228.943C135.878 228.74 135.428 228.481 135.048 228.164C134.681 227.847 134.389 227.512 134.174 227.157L135.504 226.416C135.643 226.593 135.814 226.796 136.017 227.024C136.232 227.239 136.505 227.423 136.834 227.575C137.163 227.727 137.569 227.803 138.05 227.803C138.911 227.803 139.602 227.556 140.121 227.062C140.64 226.568 140.9 225.947 140.9 225.2C140.9 224.63 140.742 224.149 140.425 223.756C140.121 223.363 139.678 223.066 139.095 222.863C138.512 222.66 137.816 222.559 137.005 222.559H136.644V221.305H136.967C137.765 221.305 138.5 221.394 139.171 221.571C139.842 221.748 140.425 222.008 140.919 222.35C141.426 222.692 141.812 223.11 142.078 223.604C142.357 224.098 142.496 224.668 142.496 225.314C142.496 226.099 142.3 226.79 141.907 227.385C141.527 227.968 141.008 228.424 140.349 228.753C139.69 229.07 138.962 229.228 138.164 229.228ZM136.644 222.426V221.191H137.005C138.094 221.191 138.956 221.007 139.589 220.64C140.235 220.26 140.558 219.722 140.558 219.025C140.558 218.645 140.457 218.297 140.254 217.98C140.051 217.651 139.754 217.391 139.361 217.201C138.981 216.998 138.538 216.897 138.031 216.897C137.689 216.897 137.366 216.948 137.062 217.049C136.771 217.138 136.498 217.277 136.245 217.467C136.004 217.644 135.783 217.872 135.58 218.151L134.326 217.429C134.567 217.036 134.871 216.694 135.238 216.403C135.618 216.112 136.049 215.884 136.53 215.719C137.011 215.554 137.537 215.472 138.107 215.472C138.88 215.472 139.57 215.624 140.178 215.928C140.799 216.232 141.286 216.65 141.641 217.182C141.996 217.701 142.173 218.29 142.173 218.949C142.173 219.506 142.04 220 141.774 220.431C141.508 220.862 141.134 221.229 140.653 221.533C140.184 221.837 139.633 222.065 139 222.217C138.379 222.356 137.702 222.426 136.967 222.426H136.644ZM150.342 229V225.77H144.205V224.535L150.266 215.7H151.9V224.345H154.617V225.77H151.9V229H150.342ZM146.048 224.345H150.342V218.037L146.048 224.345Z" fill="black"/>
<g clip-path="url(#clip2_32_769)">
<path d="M298.781 81.9849L290.926 100.703H285.801L281.935 85.765C281.701 84.845 281.497 84.5079 280.783 84.1203C279.617 83.4889 277.693 82.8965 276 82.5289L276.115 81.9849H284.365C285.416 81.9849 286.361 82.684 286.6 83.8934L288.642 94.7245L293.687 81.9846L298.781 81.9849ZM318.862 94.5915C318.882 89.6513 312.022 89.3791 312.069 87.1723C312.084 86.5006 312.724 85.7866 314.125 85.6043C314.82 85.5135 316.734 85.4442 318.905 86.442L319.757 82.4727C318.59 82.0498 317.089 81.6428 315.222 81.6428C310.43 81.6428 307.057 84.1871 307.029 87.8302C306.998 90.5249 309.436 92.0286 311.273 92.9239C313.162 93.8409 313.796 94.4301 313.789 95.2503C313.776 96.5059 312.282 97.0602 310.886 97.082C308.449 97.1195 307.035 96.4235 305.908 95.9001L305.029 100.001C306.162 100.52 308.253 100.973 310.421 100.995C315.514 100.995 318.846 98.4828 318.862 94.5915ZM331.516 100.703H336L332.086 81.9849H327.947C327.017 81.9849 326.232 82.5261 325.884 83.3581L318.609 100.703H323.7L324.71 97.9069H330.931L331.516 100.703ZM326.106 94.0706L328.658 87.0428L330.127 94.0706H326.106ZM305.708 81.9849L301.699 100.703H296.851L300.862 81.9849H305.708Z" fill="white"/>
</g>
<g clip-path="url(#clip3_32_769)">
<path d="M138.769 134.737H128.561C127.016 134.737 125.508 135.21 124.241 136.094C122.973 136.977 122.007 138.228 121.473 139.678H128.016C128.145 139.659 128.275 139.649 128.405 139.649H138.769C142.176 139.649 145.443 141.003 147.853 143.412C150.262 145.822 151.615 149.09 151.615 152.498C151.615 155.906 150.262 159.175 147.853 161.585C145.444 163.996 142.176 165.35 138.769 165.351H128.412C128.085 165.351 127.761 165.286 127.458 165.161C127.156 165.036 126.881 164.852 126.65 164.62C126.419 164.389 126.235 164.114 126.11 163.811C125.986 163.508 125.922 163.184 125.922 162.857V160.439C127.648 161.296 129.606 161.567 131.5 161.211C133.394 160.854 135.12 159.891 136.417 158.465C137.714 157.039 138.511 155.23 138.688 153.31C138.864 151.391 138.41 149.466 137.395 147.828C136.379 146.19 134.858 144.928 133.061 144.232C131.263 143.536 129.289 143.446 127.435 143.974C125.582 144.502 123.951 145.619 122.79 147.158C121.628 148.696 121 150.571 121 152.498C121 152.676 121 152.862 121 153.029V154.185V162.711C121 163.704 121.195 164.687 121.575 165.604C121.955 166.522 122.512 167.355 123.214 168.056C123.917 168.758 124.75 169.314 125.668 169.692C126.585 170.071 127.569 170.265 128.561 170.263H138.769C143.479 170.262 147.995 168.39 151.325 165.059C154.656 161.727 156.526 157.209 156.526 152.498C156.526 147.788 154.655 143.27 151.325 139.939C147.995 136.608 143.478 134.737 138.769 134.737ZM129.862 148.553C130.64 148.552 131.4 148.782 132.048 149.214C132.695 149.645 133.199 150.259 133.498 150.977C133.796 151.695 133.875 152.485 133.725 153.249C133.575 154.012 133.201 154.713 132.652 155.264C132.104 155.815 131.404 156.191 130.641 156.344C129.879 156.497 129.088 156.421 128.369 156.125C127.65 155.829 127.035 155.327 126.601 154.681C126.168 154.036 125.935 153.276 125.933 152.498C125.931 151.981 126.031 151.468 126.228 150.99C126.424 150.511 126.714 150.076 127.079 149.71C127.444 149.343 127.878 149.052 128.355 148.854C128.833 148.655 129.345 148.553 129.862 148.553Z" fill="white"/>
<path d="M169.577 165V140.132H177.25C179.619 140.132 181.715 140.664 183.538 141.73C185.386 142.772 186.83 144.229 187.873 146.1C188.915 147.971 189.436 150.126 189.436 152.566C189.436 154.982 188.915 157.125 187.873 158.996C186.83 160.867 185.386 162.336 183.538 163.401C181.715 164.467 179.619 165 177.25 165H169.577ZM173.058 161.732H177.25C178.458 161.732 179.583 161.507 180.625 161.057C181.667 160.583 182.579 159.932 183.361 159.103C184.166 158.25 184.782 157.267 185.208 156.154C185.658 155.041 185.883 153.845 185.883 152.566C185.883 151.287 185.658 150.091 185.208 148.978C184.782 147.864 184.166 146.893 183.361 146.064C182.579 145.212 181.667 144.561 180.625 144.111C179.583 143.637 178.458 143.4 177.25 143.4H173.058V161.732ZM201.351 165.426C199.575 165.426 198.012 165.036 196.662 164.254C195.312 163.449 194.246 162.347 193.465 160.95C192.707 159.553 192.328 157.942 192.328 156.118C192.328 154.295 192.707 152.684 193.465 151.287C194.223 149.889 195.276 148.8 196.626 148.018C197.976 147.213 199.528 146.811 201.28 146.811C203.033 146.811 204.584 147.213 205.934 148.018C207.284 148.8 208.338 149.889 209.096 151.287C209.854 152.684 210.233 154.295 210.233 156.118C210.233 157.942 209.854 159.553 209.096 160.95C208.338 162.347 207.284 163.449 205.934 164.254C204.608 165.036 203.08 165.426 201.351 165.426ZM201.351 162.336C202.417 162.336 203.365 162.075 204.194 161.554C205.023 161.009 205.662 160.275 206.112 159.351C206.586 158.428 206.823 157.35 206.823 156.118C206.823 154.887 206.586 153.809 206.112 152.886C205.662 151.962 205.011 151.239 204.158 150.718C203.305 150.174 202.346 149.901 201.28 149.901C200.191 149.901 199.232 150.174 198.403 150.718C197.574 151.239 196.923 151.962 196.449 152.886C195.975 153.809 195.738 154.887 195.738 156.118C195.738 157.35 195.975 158.428 196.449 159.351C196.923 160.275 197.586 161.009 198.438 161.554C199.291 162.075 200.262 162.336 201.351 162.336ZM214.108 172.105V147.237H217.27L217.483 150.505V172.105H214.108ZM223.31 165.426C221.817 165.426 220.515 165.036 219.402 164.254C218.312 163.472 217.471 162.383 216.879 160.986C216.287 159.588 215.991 157.966 215.991 156.118C215.991 154.247 216.287 152.625 216.879 151.251C217.471 149.854 218.312 148.764 219.402 147.983C220.515 147.201 221.817 146.811 223.31 146.811C224.896 146.811 226.294 147.201 227.502 147.983C228.71 148.764 229.645 149.854 230.308 151.251C230.995 152.625 231.338 154.247 231.338 156.118C231.338 157.966 230.995 159.588 230.308 160.986C229.645 162.383 228.71 163.472 227.502 164.254C226.294 165.036 224.896 165.426 223.31 165.426ZM222.492 162.371C223.558 162.371 224.494 162.111 225.299 161.589C226.104 161.045 226.732 160.311 227.182 159.387C227.656 158.439 227.892 157.35 227.892 156.118C227.892 154.887 227.667 153.809 227.217 152.886C226.767 151.938 226.14 151.204 225.335 150.683C224.529 150.138 223.594 149.866 222.528 149.866C221.557 149.866 220.681 150.138 219.899 150.683C219.141 151.204 218.549 151.938 218.123 152.886C217.696 153.833 217.483 154.911 217.483 156.118C217.483 157.35 217.696 158.439 218.123 159.387C218.549 160.311 219.141 161.045 219.899 161.589C220.657 162.111 221.521 162.371 222.492 162.371ZM243.053 165.426C241.277 165.426 239.714 165.036 238.364 164.254C237.014 163.449 235.948 162.347 235.166 160.95C234.409 159.553 234.03 157.942 234.03 156.118C234.03 154.295 234.409 152.684 235.166 151.287C235.924 149.889 236.978 148.8 238.328 148.018C239.678 147.213 241.23 146.811 242.982 146.811C244.735 146.811 246.286 147.213 247.636 148.018C248.986 148.8 250.04 149.889 250.798 151.287C251.556 152.684 251.935 154.295 251.935 156.118C251.935 157.942 251.556 159.553 250.798 160.95C250.04 162.347 248.986 163.449 247.636 164.254C246.31 165.036 244.782 165.426 243.053 165.426ZM243.053 162.336C244.119 162.336 245.066 162.075 245.895 161.554C246.724 161.009 247.364 160.275 247.814 159.351C248.287 158.428 248.524 157.35 248.524 156.118C248.524 154.887 248.287 153.809 247.814 152.886C247.364 151.962 246.712 151.239 245.86 150.718C245.007 150.174 244.048 149.901 242.982 149.901C241.893 149.901 240.934 150.174 240.105 150.718C239.276 151.239 238.624 151.962 238.151 152.886C237.677 153.809 237.44 154.887 237.44 156.118C237.44 157.35 237.677 158.428 238.151 159.351C238.624 160.275 239.287 161.009 240.14 161.554C240.993 162.075 241.964 162.336 243.053 162.336ZM262.489 165.426C260.713 165.426 259.339 164.976 258.368 164.076C257.397 163.153 256.911 161.838 256.911 160.133V141.695H260.286V159.636C260.286 160.512 260.499 161.187 260.926 161.661C261.376 162.111 262.015 162.336 262.844 162.336C263.081 162.336 263.342 162.288 263.626 162.193C263.91 162.099 264.253 161.909 264.656 161.625L265.935 164.254C265.319 164.657 264.727 164.953 264.159 165.142C263.614 165.332 263.057 165.426 262.489 165.426ZM253.892 150.15V147.237H265.331V150.15H253.892ZM270.795 165.497C270.202 165.497 269.681 165.284 269.231 164.858C268.805 164.432 268.592 163.911 268.592 163.295C268.592 162.679 268.805 162.158 269.231 161.732C269.681 161.305 270.202 161.092 270.795 161.092C271.41 161.092 271.931 161.305 272.358 161.732C272.808 162.158 273.033 162.679 273.033 163.295C273.033 163.911 272.808 164.432 272.358 164.858C271.931 165.284 271.41 165.497 270.795 165.497ZM278.815 165V145.283C278.815 143.412 279.265 142.003 280.165 141.055C281.065 140.084 282.427 139.599 284.25 139.599C284.795 139.599 285.387 139.693 286.027 139.883C286.666 140.049 287.317 140.286 287.98 140.593L286.737 143.187C286.24 142.95 285.802 142.784 285.423 142.689C285.067 142.571 284.759 142.512 284.499 142.512C283.717 142.512 283.137 142.772 282.758 143.293C282.379 143.791 282.19 144.572 282.19 145.638V165H278.815ZM275.653 150.043V147.237H287.092V150.043H275.653ZM290.609 165V147.237H293.984V165H290.609ZM292.314 143.471C291.769 143.471 291.295 143.27 290.893 142.867C290.49 142.441 290.289 141.955 290.289 141.411C290.289 140.842 290.49 140.368 290.893 139.989C291.295 139.587 291.769 139.386 292.314 139.386C292.882 139.386 293.356 139.587 293.735 139.989C294.138 140.368 294.339 140.842 294.339 141.411C294.339 141.955 294.138 142.441 293.735 142.867C293.356 143.27 292.882 143.471 292.314 143.471Z" fill="white"/>
</g>
</g>
<path d="M39 67C39 45.4609 56.4609 28 78 28H335C356.539 28 374 45.4609 374 67V444H39V67Z" stroke="#E2E0D6" stroke-width="2"/>
<rect x="340" y="232" width="88" height="93" fill="white"/>
<path fill-rule="evenodd" clip-rule="evenodd" d="M382.994 198.688C369.964 198.688 359.371 203.089 350.132 207.876C347.34 209.322 344.747 210.753 342.269 212.12C336.205 215.465 330.83 218.43 324.927 220.313C321.461 221.419 318.39 222.399 316.213 223.252C314.164 224.055 311.728 225.155 310 227.076C308.448 228.801 307.651 230.737 307.122 232.59C306.642 234.271 306.232 236.548 305.838 238.732C296.244 291.941 317.223 342.349 368.455 361.964C373.49 363.892 377.199 365.312 383.019 365.312C388.84 365.312 392.549 363.892 397.584 361.964C448.814 342.348 469.772 291.939 460.175 238.732C459.781 236.547 459.371 234.27 458.891 232.589C458.362 230.736 457.564 228.799 456.012 227.074C454.284 225.154 451.849 224.054 449.799 223.251C447.622 222.398 444.551 221.419 441.085 220.313C435.18 218.43 429.801 215.465 423.732 212.119C421.252 210.752 418.657 209.321 415.865 207.875C406.621 203.089 396.024 198.688 382.994 198.688ZM363.626 256.328V264.556C363.044 264.733 362.466 264.944 361.891 265.2C357.085 267.332 353.388 271.365 351.487 276.281C350.667 278.404 350.351 280.584 350.205 282.883C350.064 285.095 350.064 287.79 350.064 291.02V291.386C350.064 294.615 350.064 297.311 350.205 299.524C350.351 301.822 350.667 304.003 351.487 306.126C353.388 311.042 357.085 315.074 361.891 317.207C364.002 318.144 366.163 318.497 368.376 318.659C370.481 318.812 373.031 318.812 376.018 318.812H389.985C392.973 318.812 395.522 318.812 397.627 318.659C399.841 318.497 402.001 318.144 404.112 317.207C408.918 315.074 412.615 311.042 414.515 306.126C415.336 304.003 415.651 301.822 415.798 299.524C415.939 297.311 415.939 294.615 415.939 291.386V291.02C415.939 287.79 415.939 285.095 415.798 282.883C415.651 280.584 415.336 278.404 414.515 276.281C412.615 271.365 408.918 267.332 404.112 265.2C403.537 264.944 402.958 264.733 402.376 264.556V256.328C402.376 245.698 393.501 237.438 383.001 237.438C372.502 237.438 363.626 245.698 363.626 256.328ZM383.001 249.062C378.52 249.062 375.251 252.513 375.251 256.328V263.594L376.018 263.594H389.985L390.751 263.594V256.328C390.751 252.513 387.483 249.062 383.001 249.062Z" fill="#ED6154"/>
<g filter="url(#filter2_b_32_769)">
<rect x="311.084" y="339.274" width="143.916" height="44.0074" rx="11.8939" fill="white" fill-opacity="0.16"/>
<rect x="311.381" y="339.571" width="143.321" height="43.4127" rx="11.5965" stroke="white" stroke-width="0.594694"/>
<g filter="url(#filter3_d_32_769)">
<g clip-path="url(#clip4_32_769)">
<rect x="318.221" y="345.815" width="30.9241" height="30.9241" rx="9.5151" fill="white" fill-opacity="0.35" shape-rendering="crispEdges"/>
<path d="M337.87 363.379C337.952 363.428 338.053 363.485 338.167 363.55C338.668 363.832 339.425 364.259 339.944 364.767C340.269 365.085 340.577 365.503 340.633 366.016C340.692 366.561 340.455 367.073 339.977 367.528C339.154 368.312 338.166 368.941 336.888 368.941H330.69C329.412 368.941 328.424 368.312 327.601 367.528C327.124 367.073 326.886 366.561 326.946 366.016C327.002 365.503 327.31 365.085 327.634 364.767C328.153 364.259 328.911 363.832 329.412 363.55C329.526 363.485 329.627 363.428 329.709 363.379C332.206 361.892 335.372 361.892 337.87 363.379Z" fill="#ED6154"/>
<path opacity="0.4" d="M330.1 357.52C330.1 355.482 331.752 353.83 333.79 353.83C335.828 353.83 337.48 355.482 337.48 357.52C337.48 359.558 335.828 361.21 333.79 361.21C331.752 361.21 330.1 359.558 330.1 357.52Z" fill="#ED6154"/>
<g filter="url(#filter4_f_32_769)">
<circle cx="333.961" cy="363.339" r="3.86551" fill="#ED6154"/>
</g>
</g>
</g>
<path d="M365.745 351.33H366.478V355.339C366.478 355.753 366.381 356.123 366.186 356.448C365.993 356.771 365.72 357.027 365.367 357.214C365.014 357.399 364.6 357.492 364.125 357.492C363.65 357.492 363.236 357.399 362.883 357.214C362.53 357.027 362.256 356.771 362.061 356.448C361.868 356.123 361.772 355.753 361.772 355.339V351.33H362.505V355.28C362.505 355.576 362.57 355.839 362.7 356.07C362.83 356.298 363.015 356.479 363.256 356.611C363.498 356.741 363.788 356.806 364.125 356.806C364.462 356.806 364.752 356.741 364.994 356.611C365.237 356.479 365.422 356.298 365.55 356.07C365.68 355.839 365.745 355.576 365.745 355.28V351.33ZM371.065 353.861L370.438 354.038C370.399 353.934 370.34 353.832 370.264 353.734C370.189 353.633 370.086 353.551 369.956 353.486C369.826 353.42 369.659 353.388 369.456 353.388C369.179 353.388 368.947 353.452 368.762 353.58C368.578 353.706 368.487 353.867 368.487 354.062C368.487 354.236 368.55 354.373 368.676 354.473C368.802 354.574 368.999 354.657 369.267 354.724L369.941 354.89C370.347 354.988 370.65 355.139 370.849 355.342C371.048 355.543 371.148 355.803 371.148 356.12C371.148 356.38 371.073 356.613 370.923 356.818C370.775 357.023 370.568 357.184 370.302 357.302C370.036 357.421 369.726 357.48 369.374 357.48C368.91 357.48 368.527 357.379 368.224 357.178C367.92 356.977 367.728 356.684 367.647 356.297L368.309 356.132C368.372 356.376 368.492 356.559 368.667 356.682C368.844 356.804 369.076 356.865 369.362 356.865C369.687 356.865 369.945 356.796 370.136 356.658C370.33 356.518 370.426 356.35 370.426 356.155C370.426 355.998 370.371 355.866 370.261 355.759C370.15 355.651 369.981 355.57 369.752 355.517L368.995 355.339C368.579 355.241 368.274 355.088 368.079 354.881C367.886 354.672 367.789 354.411 367.789 354.098C367.789 353.841 367.861 353.615 368.005 353.418C368.151 353.22 368.349 353.066 368.599 352.953C368.851 352.841 369.137 352.785 369.456 352.785C369.906 352.785 370.259 352.883 370.515 353.08C370.773 353.278 370.956 353.538 371.065 353.861ZM374.102 357.48C373.664 357.48 373.287 357.383 372.97 357.19C372.654 356.995 372.411 356.723 372.239 356.374C372.07 356.023 371.985 355.615 371.985 355.15C371.985 354.685 372.07 354.275 372.239 353.92C372.411 353.563 372.649 353.285 372.955 353.086C373.262 352.885 373.621 352.785 374.031 352.785C374.268 352.785 374.501 352.824 374.732 352.903C374.962 352.982 375.172 353.11 375.361 353.287C375.551 353.463 375.701 353.695 375.814 353.985C375.926 354.275 375.982 354.632 375.982 355.055V355.351H372.482V354.748H375.273C375.273 354.492 375.222 354.263 375.119 354.062C375.018 353.861 374.875 353.702 374.687 353.586C374.502 353.47 374.283 353.412 374.031 353.412C373.753 353.412 373.513 353.481 373.31 353.619C373.109 353.755 372.954 353.932 372.845 354.151C372.737 354.37 372.683 354.604 372.683 354.854V355.257C372.683 355.599 372.742 355.89 372.86 356.129C372.98 356.365 373.147 356.546 373.36 356.67C373.573 356.792 373.82 356.853 374.102 356.853C374.285 356.853 374.451 356.827 374.599 356.776C374.748 356.723 374.878 356.644 374.986 356.54C375.094 356.433 375.178 356.301 375.237 356.143L375.911 356.333C375.84 356.561 375.721 356.762 375.554 356.936C375.386 357.107 375.179 357.241 374.933 357.338C374.686 357.433 374.409 357.48 374.102 357.48ZM377.044 357.385V352.844H377.718V353.53H377.765C377.848 353.305 377.998 353.123 378.215 352.983C378.431 352.843 378.676 352.773 378.948 352.773C378.999 352.773 379.063 352.774 379.14 352.776C379.217 352.778 379.275 352.781 379.314 352.785V353.494C379.291 353.488 379.237 353.48 379.152 353.468C379.069 353.454 378.981 353.447 378.889 353.447C378.668 353.447 378.471 353.493 378.297 353.586C378.126 353.677 377.99 353.803 377.889 353.964C377.791 354.124 377.742 354.306 377.742 354.511V357.385H377.044ZM383.181 354.653V357.385H382.483V352.844H383.157V353.554H383.216C383.323 353.323 383.484 353.138 383.701 352.998C383.918 352.856 384.198 352.785 384.541 352.785C384.848 352.785 385.117 352.848 385.348 352.974C385.579 353.098 385.758 353.287 385.886 353.542C386.014 353.794 386.078 354.113 386.078 354.5V357.385H385.381V354.547C385.381 354.19 385.288 353.912 385.103 353.713C384.917 353.512 384.663 353.412 384.34 353.412C384.117 353.412 383.918 353.46 383.743 353.556C383.569 353.653 383.432 353.794 383.332 353.979C383.231 354.165 383.181 354.389 383.181 354.653ZM388.69 357.492C388.402 357.492 388.141 357.437 387.906 357.329C387.672 357.219 387.485 357.06 387.347 356.853C387.209 356.644 387.14 356.392 387.14 356.096C387.14 355.836 387.192 355.625 387.294 355.463C387.397 355.3 387.534 355.172 387.705 355.079C387.877 354.986 388.066 354.917 388.273 354.872C388.482 354.825 388.692 354.787 388.903 354.76C389.179 354.724 389.402 354.698 389.574 354.68C389.747 354.66 389.873 354.628 389.952 354.582C390.033 354.537 390.073 354.458 390.073 354.346V354.322C390.073 354.031 389.994 353.804 389.834 353.642C389.676 353.481 389.437 353.4 389.115 353.4C388.782 353.4 388.521 353.473 388.332 353.619C388.143 353.764 388.01 353.92 387.933 354.086L387.271 353.849C387.389 353.573 387.546 353.358 387.744 353.205C387.943 353.049 388.159 352.941 388.394 352.879C388.631 352.816 388.863 352.785 389.092 352.785C389.238 352.785 389.405 352.803 389.594 352.838C389.786 352.872 389.97 352.942 390.147 353.048C390.327 353.154 390.475 353.315 390.594 353.53C390.712 353.745 390.771 354.032 390.771 354.393V357.385H390.073V356.77H390.038C389.991 356.869 389.912 356.974 389.801 357.087C389.691 357.199 389.544 357.295 389.361 357.373C389.178 357.452 388.954 357.492 388.69 357.492ZM388.796 356.865C389.072 356.865 389.305 356.811 389.494 356.702C389.685 356.594 389.829 356.454 389.926 356.282C390.024 356.111 390.073 355.931 390.073 355.741V355.103C390.044 355.138 389.979 355.171 389.878 355.2C389.78 355.228 389.665 355.253 389.535 355.274C389.407 355.294 389.282 355.312 389.16 355.327C389.04 355.341 388.942 355.353 388.867 355.363C388.686 355.387 388.516 355.425 388.359 355.478C388.203 355.53 388.077 355.607 387.98 355.712C387.886 355.814 387.838 355.954 387.838 356.132C387.838 356.374 387.928 356.557 388.107 356.682C388.289 356.804 388.518 356.865 388.796 356.865ZM392.045 357.385V352.844H392.719V353.554H392.778C392.873 353.311 393.025 353.123 393.236 352.989C393.447 352.853 393.7 352.785 393.996 352.785C394.296 352.785 394.545 352.853 394.744 352.989C394.945 353.123 395.102 353.311 395.214 353.554H395.261C395.378 353.319 395.552 353.133 395.785 352.995C396.017 352.855 396.296 352.785 396.621 352.785C397.027 352.785 397.36 352.912 397.618 353.166C397.876 353.419 398.005 353.812 398.005 354.346V357.385H397.307V354.346C397.307 354.011 397.216 353.771 397.032 353.627C396.849 353.484 396.633 353.412 396.385 353.412C396.066 353.412 395.818 353.508 395.643 353.701C395.467 353.893 395.38 354.135 395.38 354.429V357.385H394.67V354.275C394.67 354.017 394.586 353.809 394.419 353.651C394.251 353.491 394.035 353.412 393.771 353.412C393.59 353.412 393.42 353.46 393.263 353.556C393.107 353.653 392.981 353.787 392.884 353.959C392.79 354.128 392.742 354.324 392.742 354.547V357.385H392.045ZM401.185 357.48C400.747 357.48 400.37 357.383 400.053 357.19C399.737 356.995 399.494 356.723 399.322 356.374C399.153 356.023 399.068 355.615 399.068 355.15C399.068 354.685 399.153 354.275 399.322 353.92C399.494 353.563 399.732 353.285 400.038 353.086C400.345 352.885 400.704 352.785 401.114 352.785C401.35 352.785 401.584 352.824 401.815 352.903C402.045 352.982 402.255 353.11 402.444 353.287C402.634 353.463 402.784 353.695 402.897 353.985C403.009 354.275 403.065 354.632 403.065 355.055V355.351H399.565V354.748H402.356C402.356 354.492 402.304 354.263 402.202 354.062C402.101 353.861 401.958 353.702 401.77 353.586C401.585 353.47 401.366 353.412 401.114 353.412C400.836 353.412 400.596 353.481 400.393 353.619C400.192 353.755 400.037 353.932 399.928 354.151C399.82 354.37 399.766 354.604 399.766 354.854V355.257C399.766 355.599 399.825 355.89 399.943 356.129C400.063 356.365 400.23 356.546 400.443 356.67C400.656 356.792 400.903 356.853 401.185 356.853C401.368 356.853 401.534 356.827 401.682 356.776C401.831 356.723 401.961 356.644 402.069 356.54C402.177 356.433 402.261 356.301 402.32 356.143L402.994 356.333C402.923 356.561 402.804 356.762 402.637 356.936C402.469 357.107 402.262 357.241 402.016 357.338C401.769 357.433 401.492 357.48 401.185 357.48Z" fill="#1D1F1E"/>
<path d="M361.799 363.844H363.066L365.269 369.223H365.35L367.553 363.844H368.82V370.764H367.827V365.756H367.762L365.722 370.754H364.897L362.856 365.753H362.792V370.764H361.799V363.844ZM372.146 370.869C371.659 370.869 371.235 370.757 370.872 370.534C370.509 370.311 370.228 369.999 370.027 369.598C369.827 369.197 369.726 368.729 369.726 368.193C369.726 367.654 369.827 367.183 370.027 366.78C370.228 366.377 370.509 366.064 370.872 365.841C371.235 365.618 371.659 365.506 372.146 365.506C372.632 365.506 373.057 365.618 373.42 365.841C373.782 366.064 374.064 366.377 374.264 366.78C374.465 367.183 374.565 367.654 374.565 368.193C374.565 368.729 374.465 369.197 374.264 369.598C374.064 369.999 373.782 370.311 373.42 370.534C373.057 370.757 372.632 370.869 372.146 370.869ZM372.149 370.021C372.465 370.021 372.726 369.937 372.933 369.771C373.14 369.604 373.293 369.382 373.393 369.105C373.494 368.828 373.545 368.523 373.545 368.189C373.545 367.858 373.494 367.554 373.393 367.277C373.293 366.998 373.14 366.773 372.933 366.604C372.726 366.435 372.465 366.351 372.149 366.351C371.832 366.351 371.568 366.435 371.358 366.604C371.151 366.773 370.997 366.998 370.896 367.277C370.796 367.554 370.747 367.858 370.747 368.189C370.747 368.523 370.796 368.828 370.896 369.105C370.997 369.382 371.151 369.604 371.358 369.771C371.568 369.937 371.832 370.021 372.149 370.021ZM376.406 367.682V370.764H375.395V363.844H376.392V366.419H376.456C376.578 366.139 376.764 365.917 377.014 365.753C377.264 365.589 377.591 365.506 377.994 365.506C378.35 365.506 378.661 365.579 378.926 365.726C379.195 365.872 379.402 366.091 379.548 366.381C379.697 366.67 379.771 367.03 379.771 367.463V370.764H378.761V367.584C378.761 367.204 378.663 366.909 378.467 366.699C378.271 366.487 377.998 366.381 377.649 366.381C377.41 366.381 377.196 366.432 377.007 366.533C376.82 366.635 376.673 366.784 376.565 366.979C376.459 367.173 376.406 367.407 376.406 367.682ZM382.332 370.879C382.004 370.879 381.706 370.818 381.44 370.696C381.175 370.572 380.964 370.393 380.809 370.159C380.655 369.925 380.579 369.638 380.579 369.297C380.579 369.005 380.635 368.764 380.748 368.574C380.86 368.385 381.012 368.235 381.204 368.125C381.395 368.015 381.609 367.931 381.846 367.875C382.082 367.819 382.323 367.776 382.569 367.747C382.88 367.71 383.132 367.681 383.326 367.659C383.52 367.634 383.66 367.594 383.748 367.54C383.836 367.486 383.88 367.398 383.88 367.277V367.253C383.88 366.958 383.797 366.729 383.63 366.567C383.466 366.405 383.22 366.324 382.893 366.324C382.553 366.324 382.285 366.399 382.089 366.55C381.895 366.699 381.761 366.865 381.687 367.047L380.738 366.831C380.85 366.515 381.015 366.261 381.231 366.067C381.449 365.871 381.701 365.729 381.984 365.641C382.268 365.551 382.567 365.506 382.88 365.506C383.087 365.506 383.307 365.531 383.539 365.581C383.773 365.628 383.991 365.716 384.194 365.844C384.399 365.973 384.567 366.156 384.698 366.395C384.828 366.631 384.894 366.939 384.894 367.317V370.764H383.907V370.054H383.866C383.801 370.185 383.703 370.313 383.573 370.44C383.442 370.566 383.274 370.67 383.069 370.754C382.864 370.837 382.619 370.879 382.332 370.879ZM382.552 370.068C382.831 370.068 383.07 370.013 383.268 369.902C383.469 369.792 383.621 369.648 383.725 369.47C383.83 369.29 383.883 369.097 383.883 368.892V368.223C383.847 368.259 383.777 368.293 383.674 368.324C383.573 368.354 383.456 368.38 383.326 368.402C383.195 368.422 383.068 368.441 382.944 368.459C382.82 368.475 382.717 368.489 382.633 368.5C382.437 368.525 382.258 368.566 382.096 368.625C381.936 368.684 381.808 368.768 381.711 368.878C381.616 368.987 381.569 369.131 381.569 369.311C381.569 369.561 381.661 369.75 381.846 369.879C382.031 370.005 382.266 370.068 382.552 370.068ZM386.952 367.682V370.764H385.942V365.574H386.912V366.419H386.976C387.095 366.144 387.282 365.923 387.537 365.756C387.794 365.59 388.117 365.506 388.507 365.506C388.86 365.506 389.17 365.581 389.436 365.729C389.702 365.876 389.908 366.094 390.054 366.385C390.201 366.675 390.274 367.035 390.274 367.463V370.764H389.263V367.584C389.263 367.208 389.165 366.914 388.97 366.702C388.774 366.488 388.504 366.381 388.162 366.381C387.928 366.381 387.719 366.432 387.537 366.533C387.357 366.635 387.214 366.784 387.108 366.979C387.004 367.173 386.952 367.407 386.952 367.682ZM393.633 370.764V363.844H394.677V369.865H397.813V370.764H393.633ZM400.136 370.879C399.807 370.879 399.51 370.818 399.244 370.696C398.978 370.572 398.768 370.393 398.612 370.159C398.459 369.925 398.382 369.638 398.382 369.297C398.382 369.005 398.439 368.764 398.551 368.574C398.664 368.385 398.816 368.235 399.008 368.125C399.199 368.015 399.413 367.931 399.65 367.875C399.886 367.819 400.127 367.776 400.373 367.747C400.683 367.71 400.936 367.681 401.129 367.659C401.323 367.634 401.464 367.594 401.552 367.54C401.64 367.486 401.684 367.398 401.684 367.277V367.253C401.684 366.958 401.6 366.729 401.434 366.567C401.269 366.405 401.024 366.324 400.697 366.324C400.357 366.324 400.089 366.399 399.893 366.55C399.699 366.699 399.565 366.865 399.491 367.047L398.541 366.831C398.654 366.515 398.818 366.261 399.035 366.067C399.253 365.871 399.504 365.729 399.788 365.641C400.072 365.551 400.37 365.506 400.683 365.506C400.891 365.506 401.11 365.531 401.342 365.581C401.577 365.628 401.795 365.716 401.998 365.844C402.203 365.973 402.371 366.156 402.501 366.395C402.632 366.631 402.697 366.939 402.697 367.317V370.764H401.711V370.054H401.67C401.605 370.185 401.507 370.313 401.376 370.44C401.246 370.566 401.078 370.67 400.873 370.754C400.668 370.837 400.422 370.879 400.136 370.879ZM400.356 370.068C400.635 370.068 400.874 370.013 401.072 369.902C401.273 369.792 401.425 369.648 401.528 369.47C401.634 369.29 401.687 369.097 401.687 368.892V368.223C401.651 368.259 401.581 368.293 401.478 368.324C401.376 368.354 401.26 368.38 401.129 368.402C400.999 368.422 400.872 368.441 400.748 368.459C400.624 368.475 400.52 368.489 400.437 368.5C400.241 368.525 400.062 368.566 399.9 368.625C399.74 368.684 399.611 368.768 399.514 368.878C399.42 368.987 399.372 369.131 399.372 369.311C399.372 369.561 399.465 369.75 399.65 369.879C399.834 370.005 400.07 370.068 400.356 370.068ZM404.756 363.844V370.764H403.746V363.844H404.756Z" fill="#ED6154"/>
</g>
</g>
<defs>
<filter id="filter0_f_32_769" x="-298.127" y="-261.83" width="797.316" height="797.316" filterUnits="userSpaceOnUse" color-interpolation-filters="sRGB">
<feFlood flood-opacity="0" result="BackgroundImageFix"/>
<feBlend mode="normal" in="SourceGraphic" in2="BackgroundImageFix" result="shape"/>
<feGaussianBlur stdDeviation="112.915" result="effect1_foregroundBlur_32_769"/>
</filter>
<filter id="filter1_f_32_769" x="-48.4863" y="-261.83" width="797.316" height="797.316" filterUnits="userSpaceOnUse" color-interpolation-filters="sRGB">
<feFlood flood-opacity="0" result="BackgroundImageFix"/>
<feBlend mode="normal" in="SourceGraphic" in2="BackgroundImageFix" result="shape"/>
<feGaussianBlur stdDeviation="112.915" result="effect1_foregroundBlur_32_769"/>
</filter>
<filter id="filter2_b_32_769" x="274.391" y="302.581" width="217.301" height="117.393" filterUnits="userSpaceOnUse" color-interpolation-filters="sRGB">
<feFlood flood-opacity="0" result="BackgroundImageFix"/>
<feGaussianBlur in="BackgroundImageFix" stdDeviation="18.3463"/>
<feComposite in2="SourceAlpha" operator="in" result="effect1_backgroundBlur_32_769"/>
<feBlend mode="normal" in="SourceGraphic" in2="effect1_backgroundBlur_32_769" result="shape"/>
</filter>
<filter id="filter3_d_32_769" x="317.627" y="345.22" width="32.1135" height="32.1135" filterUnits="userSpaceOnUse" color-interpolation-filters="sRGB">
<feFlood flood-opacity="0" result="BackgroundImageFix"/>
<feColorMatrix in="SourceAlpha" type="matrix" values="0 0 0 0 0 0 0 0 0 0 0 0 0 0 0 0 0 0 127 0" result="hardAlpha"/>
<feMorphology radius="0.594694" operator="dilate" in="SourceAlpha" result="effect1_dropShadow_32_769"/>
<feOffset/>
<feComposite in2="hardAlpha" operator="out"/>
<feColorMatrix type="matrix" values="0 0 0 0 1 0 0 0 0 1 0 0 0 0 1 0 0 0 0.48 0"/>
<feBlend mode="normal" in2="BackgroundImageFix" result="effect1_dropShadow_32_769"/>
<feBlend mode="normal" in="SourceGraphic" in2="effect1_dropShadow_32_769" result="shape"/>
</filter>
<filter id="filter4_f_32_769" x="319.629" y="349.007" width="28.6643" height="28.6642" filterUnits="userSpaceOnUse" color-interpolation-filters="sRGB">
<feFlood flood-opacity="0" result="BackgroundImageFix"/>
<feBlend mode="normal" in="SourceGraphic" in2="BackgroundImageFix" result="shape"/>
<feGaussianBlur stdDeviation="5.23331" result="effect1_foregroundBlur_32_769"/>
</filter>
<linearGradient id="paint0_linear_32_769" x1="87" y1="86" x2="357" y2="228.5" gradientUnits="userSpaceOnUse">
<stop stop-color="white"/>
<stop offset="1" stop-color="white" stop-opacity="0.18"/>
</linearGradient>
<clipPath id="clip0_32_769">
<rect y="0.749268" width="520.749" height="444" rx="25.3714" fill="white"/>
</clipPath>
<clipPath id="clip1_32_769">
<path d="M38 67C38 44.9086 55.9086 27 78 27H335C357.091 27 375 44.9086 375 67V445H38V67Z" fill="white"/>
</clipPath>
<clipPath id="clip2_32_769">
<rect width="60" height="23" fill="white" transform="translate(276 80)"/>
</clipPath>
<clipPath id="clip3_32_769">
<rect width="176" height="45" fill="white" transform="translate(121 130)"/>
</clipPath>
<clipPath id="clip4_32_769">
<rect x="318.221" y="345.815" width="30.9241" height="30.9241" rx="9.5151" fill="white"/>
</clipPath>
</defs>
</svg>
