<svg width="28" height="29" viewBox="0 0 28 29" fill="none" xmlns="http://www.w3.org/2000/svg">
<g clip-path="url(#clip0_117_1284)">
<path d="M14 3.27012C17.7406 3.27012 18.1836 3.28652 19.6547 3.35215C21.0219 3.4123 21.7602 3.64199 22.2523 3.8334C22.9031 4.08496 23.3734 4.39121 23.8602 4.87793C24.3523 5.37012 24.6531 5.83496 24.9047 6.48574C25.0961 6.97793 25.3258 7.72168 25.3859 9.0834C25.4516 10.56 25.468 11.0029 25.468 14.7381C25.468 18.4787 25.4516 18.9217 25.3859 20.3928C25.3258 21.76 25.0961 22.4982 24.9047 22.9904C24.6531 23.6412 24.3469 24.1115 23.8602 24.5982C23.368 25.0904 22.9031 25.3912 22.2523 25.6428C21.7602 25.8342 21.0164 26.0639 19.6547 26.124C18.1781 26.1896 17.7352 26.2061 14 26.2061C10.2594 26.2061 9.81641 26.1896 8.34531 26.124C6.97813 26.0639 6.23984 25.8342 5.74766 25.6428C5.09688 25.3912 4.62656 25.085 4.13984 24.5982C3.64766 24.1061 3.34688 23.6412 3.09531 22.9904C2.90391 22.4982 2.67422 21.7545 2.61406 20.3928C2.54844 18.9162 2.53203 18.4732 2.53203 14.7381C2.53203 10.9975 2.54844 10.5545 2.61406 9.0834C2.67422 7.71621 2.90391 6.97793 3.09531 6.48574C3.34688 5.83496 3.65313 5.36465 4.13984 4.87793C4.63203 4.38574 5.09688 4.08496 5.74766 3.8334C6.23984 3.64199 6.98359 3.4123 8.34531 3.35215C9.81641 3.28652 10.2594 3.27012 14 3.27012ZM14 0.749023C10.1992 0.749023 9.72344 0.76543 8.23047 0.831055C6.74297 0.89668 5.72031 1.1373 4.83438 1.48184C3.91016 1.84277 3.12813 2.31855 2.35156 3.10059C1.56953 3.87715 1.09375 4.65918 0.732813 5.57793C0.388281 6.46934 0.147656 7.48652 0.0820313 8.97402C0.0164063 10.4725 0 10.9482 0 14.749C0 18.5498 0.0164063 19.0256 0.0820313 20.5186C0.147656 22.0061 0.388281 23.0287 0.732813 23.9146C1.09375 24.8389 1.56953 25.6209 2.35156 26.3975C3.12813 27.174 3.91016 27.6553 4.82891 28.0107C5.72031 28.3553 6.7375 28.5959 8.225 28.6615C9.71797 28.7271 10.1938 28.7436 13.9945 28.7436C17.7953 28.7436 18.2711 28.7271 19.7641 28.6615C21.2516 28.5959 22.2742 28.3553 23.1602 28.0107C24.0789 27.6553 24.8609 27.174 25.6375 26.3975C26.4141 25.6209 26.8953 24.8389 27.2508 23.9201C27.5953 23.0287 27.8359 22.0115 27.9016 20.524C27.9672 19.0311 27.9836 18.5553 27.9836 14.7545C27.9836 10.9537 27.9672 10.4779 27.9016 8.98496C27.8359 7.49746 27.5953 6.47481 27.2508 5.58887C26.9063 4.65918 26.4305 3.87715 25.6484 3.10059C24.8719 2.32402 24.0898 1.84277 23.1711 1.4873C22.2797 1.14277 21.2625 0.902148 19.775 0.836523C18.2766 0.76543 17.8008 0.749023 14 0.749023Z" fill="white"/>
<path d="M14 7.55762C10.0297 7.55762 6.80859 10.7787 6.80859 14.749C6.80859 18.7193 10.0297 21.9404 14 21.9404C17.9703 21.9404 21.1914 18.7193 21.1914 14.749C21.1914 10.7787 17.9703 7.55762 14 7.55762ZM14 19.4139C11.4242 19.4139 9.33516 17.3248 9.33516 14.749C9.33516 12.1732 11.4242 10.0842 14 10.0842C16.5758 10.0842 18.6648 12.1732 18.6648 14.749C18.6648 17.3248 16.5758 19.4139 14 19.4139Z" fill="white"/>
<path d="M23.1547 7.27315C23.1547 8.20284 22.4 8.95206 21.4758 8.95206C20.5461 8.95206 19.7969 8.19737 19.7969 7.27315C19.7969 6.34346 20.5516 5.59424 21.4758 5.59424C22.4 5.59424 23.1547 6.34893 23.1547 7.27315Z" fill="white"/>
</g>
<defs>
<clipPath id="clip0_117_1284">
<rect width="28" height="28" fill="white" transform="translate(0 0.749023)"/>
</clipPath>
</defs>
</svg>
