<svg width="81" height="80" viewBox="0 0 81 80" fill="none" xmlns="http://www.w3.org/2000/svg">
<rect x="0.5" width="80" height="80" rx="40" fill="#FBF4F3"/>
<g clip-path="url(#clip0_46_1843)">
<path d="M39.355 40V56.2567C35.7077 55.0768 32.4387 52.9503 29.8817 50.0943C27.3246 47.2383 25.5711 43.7551 24.8 40H39.3567H39.355ZM54.8284 46.3233C52.1619 51.0285 47.8322 54.5663 42.69 56.2417L42.6884 40H57.2017C56.747 42.2192 55.9461 44.353 54.8284 46.3233ZM39.3567 24.21L39.355 36.6667H24.3784C24.265 34.28 24.5467 31.8667 25.235 29.53C25.3402 29.1721 25.5624 28.8598 25.8661 28.6432C26.1698 28.4265 26.5374 28.318 26.91 28.335C31.2237 28.5324 35.4686 27.2009 38.8967 24.575L39.3567 24.21ZM42.6884 36.6667V24.245L42.5384 24.1233C45.9005 26.9159 50.1498 28.4155 54.52 28.3517L55.09 28.335C55.4627 28.318 55.8303 28.4265 56.1339 28.6432C56.4376 28.8598 56.6598 29.1721 56.765 29.53C57.4534 31.8683 57.735 34.28 57.6217 36.6667H42.6884Z" fill="#ED6154"/>
</g>
<defs>
<clipPath id="clip0_46_1843">
<rect width="40" height="40" fill="white" transform="translate(21 20)"/>
</clipPath>
</defs>
</svg>
